<svg width="232" height="20" xmlns="http://www.w3.org/2000/svg"><defs><linearGradient x1="50%" y1="98.083%" x2="50%" y2=".767%" id="a"><stop stop-color="#ED1C23" offset="0%"/><stop stop-color="#FBAF3B" offset="100%"/></linearGradient></defs><g fill="none" fill-rule="evenodd"><path d="M78.622 12.384l1.596 21.94H77.49l-.847-14.154-8.98 15.523-4.899-15.53-4.416 14.162H55.6l7.085-21.871 5.712 17.174 10.224-17.244zm99.46.382l.324.01.454.036c.085.008.175.018.269.03l.61.096c1.09.203 2.518.644 3.883 1.596l.515.383-.46 3.694-.413-.62-.154-.195-.255-.285c-.765-.802-2.485-2.188-5.23-2.188-4.55 0-8.723 3.809-9.3 8.491-.287 2.311.334 4.469 1.755 6.077 1.342 1.517 3.257 2.354 5.39 2.354 2.606 0 4.58-1.225 5.606-2.04l.359-.3.424-.408.507-.552-.466 3.766-.093.06a12.622 12.622 0 01-4.577 1.842l-.629.1-.53.058-.418.027-.444.003c-2.918-.002-5.532-1.142-7.36-3.21-1.851-2.096-2.67-4.88-2.305-7.837.73-5.88 5.964-10.696 11.806-10.974l.732-.014zm18.174 9.018c1.724 0 3.344.713 4.443 1.956 1.101 1.248 1.59 2.88 1.377 4.596-.432 3.504-3.808 6.466-7.375 6.466-1.728 0-3.348-.715-4.45-1.96-1.096-1.242-1.583-2.864-1.377-4.563.44-3.52 3.818-6.495 7.382-6.495zm19.446.535l-1.486 12.02h-2.558l.16-1.292c-.936.93-2.462 1.755-4.173 1.755-1.318 0-2.48-.492-3.267-1.385-.804-.91-1.168-2.184-1.008-3.497l.9-7.274 2.597-.327-.914 7.402c-.101.785.084 1.466.525 1.968.49.552 1.27.845 2.25.845 1.526 0 3.3-1.155 3.51-2.873l.87-7.015 2.594-.327zm-63.587-.547c1.77 0 3.21.58 4.164 1.678 1.047 1.207 1.48 3.01 1.263 5.233l-.097.771h-9.914c.16 1.896 1.567 2.979 3.895 2.979 1.806 0 2.878-.434 3.868-.961l1.119-.623-.312 2.522-.106.06c-1.224.687-2.604 1.356-4.8 1.356-2.092 0-3.873-.708-5.006-1.992-.991-1.12-1.404-2.599-1.198-4.272.548-4.433 4.001-6.751 7.124-6.751zm-62.717 0c1.771 0 3.211.58 4.164 1.678 1.048 1.207 1.48 3.01 1.263 5.233l-.097.771h-9.914c.16 1.896 1.567 2.979 3.895 2.979 1.622 0 2.652-.35 3.563-.803l.594-.315.83-.466-.312 2.522-.105.06c-1.224.687-2.604 1.356-4.8 1.356-2.093 0-3.874-.708-5.007-1.992-.99-1.12-1.404-2.599-1.197-4.272.547-4.433 4-6.751 7.123-6.751zM231.476 12l-2.767 22.34h-2.556l.197-1.59c-1.104 1.191-2.882 2.021-4.471 2.021-1.781 0-3.24-.583-4.217-1.69-1.02-1.151-1.452-2.817-1.222-4.686.485-3.908 3.43-6.636 7.167-6.636 1.565 0 3.065.832 3.852 2.064l1.356-10.968 2.661-.855zm-42.07.002L186.64 34.34h-2.556l2.664-21.483 2.66-.854zm-56.632 1.268l-1.166 2.527h-9.586l-.85 6.867h6.627v.48h-.12l-.883 1.778v.24h-5.933l-1.138 9.163h-2.729l2.612-21.055h13.166zm2.715 9.038l-1.497 12.017h-2.559l1.455-11.722 2.601-.295zm-24.427-.537c1 0 1.93.427 2.616 1.204.84.95 1.224 2.29 1.053 3.677l-.955 7.673h-2.527l.922-7.445c.13-1.017-.027-1.81-.45-2.287-.326-.367-.815-.554-1.458-.554-1.954 0-3.178 1.346-3.332 2.613l-.955 7.673h-2.556l.922-7.445c.127-1.03-.024-1.826-.442-2.297-.319-.362-.801-.544-1.437-.544-1.522 0-3.3 1.166-3.516 2.901l-.912 7.385h-2.559l1.455-11.722 2.594-.295-.146 1.164c1.027-1.077 2.419-1.701 3.854-1.701 1.375 0 2.58.79 3.226 2.083.914-1.13 2.05-2.083 4.603-2.083zm29.487.532l-.206 1.73c1.082-.978 2.932-1.7 4.514-1.7h.269l-.271 2.282h-.214c-1.814 0-4.469.837-4.7 2.7l-.866 7.01h-2.558l1.45-11.693 2.582-.329zm55.47 1.865c-2.31 0-4.27 1.792-4.563 4.168-.144 1.145.15 2.196.824 2.957.64.725 1.586 1.126 2.656 1.126 2.292 0 4.241-1.78 4.532-4.14.146-1.169-.144-2.237-.821-3.003-.634-.715-1.567-1.108-2.628-1.108zm27.497-.029c-2.278 0-4.15 1.752-4.45 4.17-.149 1.187.137 2.255.8 3.006.611.692 1.526 1.076 2.57 1.076 2.294 0 4.173-1.743 4.468-4.143.152-1.21-.13-2.285-.79-3.033-.623-.704-1.52-1.076-2.598-1.076zm-134.356.045c-1.89 0-3.372 1.094-4.015 2.947h7.164a2.853 2.853 0 00-.71-1.956c-.574-.648-1.416-.991-2.439-.991zm62.715 0c-1.892 0-3.37 1.094-4.013 2.947h7.166a2.867 2.867 0 00-.713-1.956c-.573-.648-1.416-.991-2.44-.991zm-17.267-7.614c.919 0 1.706.748 1.754 1.668a1.587 1.587 0 01-1.603 1.692c-.917 0-1.704-.75-1.754-1.668a1.593 1.593 0 011.603-1.692z" fill="#116"/><path fill="#F9AE7C" d="M11.131 17.482L20.326.002.495 11.453zm30.621-6.028L21.912 0l9.127 17.5z"/><path fill="#F9904A" d="M10.643 18.326L0 12.293v22.919z"/><path fill="url(#a)" d="M11.856 18.2l9.264 28.536 9.193-28.519L21.119.59z"/><path fill="#F9904A" d="M42.243 12.298l-10.716 6.047 10.716 16.872z"/><path fill="#FB6D33" d="M30.985 19.312l-9.234 28.645L41.82 36.371zm-19.799-.017L.423 36.37 20.49 47.957z"/><path d="M25.746 16.503c-.324-1.216-1.298-2.21-1.298-2.21s.015 1.086-.324 1.784c-.345.71-1.034 1.197-1.034 1.197s.954-2.752.17-4.363c-.963-1.98-2.184-2.91-2.184-2.91s.398 2.056-.237 3.502c-.624 1.423-2.494 2.237-3.386 3.088-.659.629-1.132 1.868-1.336 2.474a.509.509 0 00-.023.133c.013-.349.144-2.14 1.463-3.157 1.232-.95.119-3.035.119-3.035s.205.95-.107 1.625c-.312.676-.975 1.053-1.277 1.766-.268.635-.212 2.522-.201 2.82v.023l.001.022v-.014a.54.54 0 00.193.4l4.446 4.2c.2.166.49.166.69.001l4.548-4.259a.535.535 0 00.193-.448c-.039-.616-.203-1.84-.416-2.639" fill="#FFF"/></g></svg>