<?xml version="1.0" encoding="UTF-8"?>
<svg width="300px" height="300px" viewBox="0 0 300 300" version="1.1" xmlns="http://www.w3.org/2000/svg" xmlns:xlink="http://www.w3.org/1999/xlink">
    <title>python</title>
    <defs>
        <linearGradient x1="12.9593594%" y1="12.0393928%" x2="79.6388325%" y2="78.2008538%" id="linearGradient-1">
            <stop stop-color="#387EB8" offset="0%"></stop>
            <stop stop-color="#366994" offset="100%"></stop>
        </linearGradient>
        <linearGradient x1="19.127525%" y1="20.5791813%" x2="90.7415328%" y2="88.4290372%" id="linearGradient-2">
            <stop stop-color="#FFE052" offset="0%"></stop>
            <stop stop-color="#FFC331" offset="100%"></stop>
        </linearGradient>
    </defs>
    <g id="官网页面" stroke="none" stroke-width="1" fill="none" fill-rule="evenodd">
        <g id="python">
            <circle id="椭圆形备份-6" fill="#FFFFFF" cx="150" cy="150" r="150"></circle>
            <g transform="translate(30.000000, 30.000000)" fill-rule="nonzero" id="Shape">
                <path d="M118.983624,0.0677583273 C58.2033592,0.0677583273 61.9988708,26.4257482 61.9988708,26.4257482 L62.066629,53.7323545 L120.067759,53.7323545 L120.067759,61.9311124 L39.0287973,61.9311124 C39.0287973,61.9311124 0.135516654,57.5202598 0.135516654,118.848108 C0.135516654,180.175943 34.0824393,178.001129 34.0824393,178.001129 L54.3421795,178.001129 L54.3421795,149.542631 C54.3421795,149.542631 53.2501278,115.595708 87.7470355,115.595708 L145.273856,115.595708 C145.273856,115.595708 177.594579,116.118174 177.594579,84.3591191 L177.594579,31.8464145 C177.594579,31.8464101 182.501757,0.0677583273 118.983624,0.0677583273 Z M87.001694,18.4302653 C92.7723814,18.4302653 97.4364769,23.0943606 97.4364769,28.865048 C97.4364769,34.6357354 92.7723814,39.2998306 87.001694,39.2998306 C81.2310066,39.2998306 76.5669113,34.6357354 76.5669113,28.865048 C76.5669113,23.0943606 81.2310066,18.4302653 87.001694,18.4302653 Z" fill="url(#linearGradient-1)"></path>
                <path d="M120.709782,238.243379 C181.490065,238.243379 177.694537,211.885388 177.694537,211.885388 L177.626779,184.578783 L119.625649,184.578783 L119.625649,176.380025 L200.66461,176.380025 C200.66461,176.380025 239.557891,180.790865 239.557891,119.463007 C239.557891,58.1351781 205.610968,60.3099927 205.610968,60.3099927 L185.351227,60.3099927 L185.351227,88.7684842 C185.351227,88.7684842 186.443297,122.715407 151.946372,122.715407 L94.4195456,122.715407 C94.4195456,122.715407 62.0988234,122.192942 62.0988234,153.952018 L62.0988234,206.464723 C62.0988234,206.464723 57.1916461,238.243379 120.709782,238.243379 Z M152.691712,219.880872 C146.921024,219.880872 142.256931,215.216779 142.256931,209.446089 C142.256931,203.675399 146.921024,199.011307 152.691712,199.011307 C158.462403,199.011307 163.126495,203.675399 163.126495,209.446089 C163.126495,215.216779 158.462403,219.880872 152.691712,219.880872 Z" fill="url(#linearGradient-2)"></path>
            </g>
        </g>
    </g>
</svg>