<?xml version="1.0" encoding="UTF-8"?>
<svg width="300px" height="300px" viewBox="0 0 300 300" version="1.1" xmlns="http://www.w3.org/2000/svg" xmlns:xlink="http://www.w3.org/1999/xlink">
    <title>c</title>
    <g id="官网页面" stroke="none" stroke-width="1" fill="none" fill-rule="evenodd">
        <g id="c">
            <circle id="椭圆形" fill="#FFFFFF" cx="150" cy="150" r="150"></circle>
            <g transform="translate(43.000000, 30.000000)" fill-rule="nonzero" id="Path">
                <path d="M213.739146,70.56 C213.737476,66.5241667 212.873291,62.9583334 211.126553,59.8983334 C209.410708,56.8883333 206.839864,54.3666667 203.393144,52.3716667 C174.936841,35.98 146.452984,19.6383334 118.006699,3.23 C110.337583,-1.1925 102.901421,-1.03166666 95.2890816,3.455 C83.9628369,10.1283334 27.2556299,42.585 10.3576904,52.3625 C3.39912597,56.3875 0.0125244141,62.5466666 0.0108544922,70.5525 C0,103.5175 0.0108544922,136.480834 0,169.446667 C0,173.393333 0.829116211,176.89 2.49903808,179.905 C4.21571778,183.005 6.82163086,185.596667 10.3485058,187.636667 C27.2472803,197.414167 83.962002,229.868333 95.2857422,236.543333 C102.901421,241.0325 110.337583,241.1925 118.009204,236.768333 C146.456323,220.359167 174.941851,204.018334 203.402329,187.626667 C206.929204,185.5875 209.535117,182.994167 211.251797,179.896667 C212.919214,176.881667 213.75,173.385 213.75,169.4375 C213.75,169.4375 213.75,103.525834 213.739146,70.56" fill="#A9B9CB"></path>
                <path d="M117.813823,3.445 C110.157232,-0.966666666 102.733594,-0.805833334 95.1337791,3.66916667 C83.8259033,10.325 27.2113769,42.6975 10.3409912,52.45 C3.39328125,56.4641666 0.0125244141,62.6075 0.0108544922,70.5925 C0,103.471667 0.0108544922,136.35 0,169.23 C0,173.166667 0.827446289,176.654167 2.49486328,179.660833 C4.20903808,182.753333 6.81077636,185.338333 10.3318066,187.3725 C14.1968408,189.606667 20.1501123,193.029167 27.1637842,197.055833 L183.378296,41.1458333 C161.520688,28.5841667 139.657237,16.0325 117.813823,3.445" fill="#7F8B99"></path>
                <path d="M128.964727,104.973334 L162.228735,105.2075 C162.228735,91.375 148.199722,57.5 107.978818,57.5 C82.3530323,57.5 47.902544,73.76 47.902544,120.508333 C47.902544,167.255833 81.674209,182.5 107.978818,182.5 C150.576021,182.5 160.7567,153.081667 160.7567,136.456667 L129.022339,134.645833 C129.022339,134.645833 129.871494,153.875 107.809321,153.875 C87.444624,153.875 84.046333,128.976667 84.046333,120.508333 C84.046333,107.635834 88.6327734,86.9716667 107.809321,86.9716667 C126.986704,86.9716667 128.964727,104.973334 128.964727,104.973334" fill="#FFFFFF"></path>
            </g>
        </g>
    </g>
</svg>