<?xml version="1.0" encoding="UTF-8"?>
<svg width="300px" height="300px" viewBox="0 0 300 300" version="1.1" xmlns="http://www.w3.org/2000/svg" xmlns:xlink="http://www.w3.org/1999/xlink">
    <title>cpp</title>
    <g id="官网页面" stroke="none" stroke-width="1" fill="none" fill-rule="evenodd">
        <g id="cpp">
            <circle id="椭圆形备份" fill="#FFFFFF" cx="150" cy="150" r="150"></circle>
            <g transform="translate(43.000000, 30.000000)" fill-rule="nonzero" id="Path">
                <path d="M213.390132,70.6 C213.388462,66.575 212.525948,63.0183334 210.781714,59.9658334 C209.068374,56.9641667 206.502539,54.4483333 203.06083,52.4591666 C174.651284,36.11 146.214185,19.8108334 117.813823,3.445 C110.157232,-0.966666666 102.733594,-0.805833334 95.1337791,3.66916667 C83.8259033,10.325 27.2113769,42.6975 10.3409912,52.45 C3.39328125,56.4641666 0.0125244141,62.6075 0.0108544922,70.5925 C0,103.471667 0.0108544922,136.35 0,169.23 C0,173.166667 0.827446289,176.654167 2.49486328,179.660833 C4.20903808,182.753333 6.81077636,185.338333 10.3318066,187.3725 C27.2030273,197.125 83.8250683,229.495 95.1304397,236.1525 C102.733594,240.63 110.157232,240.79 117.816328,236.376667 C146.217524,220.01 174.656294,203.711666 203.070015,187.3625 C206.591045,185.329166 209.192783,182.7425 210.906958,179.6525 C212.57187,176.645833 213.400987,173.158333 213.400987,169.220833 C213.400987,169.220833 213.400987,103.48 213.390132,70.6" fill="#5C8DBC"></path>
                <path d="M107.026963,119.590834 L2.49486328,179.660833 C4.20903808,182.753333 6.81077636,185.338333 10.3318066,187.3725 C27.2030273,197.125 83.8250683,229.495 95.1304397,236.1525 C102.733594,240.63 110.157232,240.79 117.816328,236.376667 C146.217524,220.01 174.656294,203.711666 203.070015,187.3625 C206.591045,185.329166 209.192783,182.7425 210.906958,179.6525 L107.026963,119.590834" fill="#1A4674"></path>
                <path d="M76.0657763,137.384167 C82.1484667,147.9825 93.5832568,155.130833 106.700493,155.130833 C119.898721,155.130833 131.398638,147.891667 137.450435,137.18 L107.026963,119.590834 L76.0657763,137.384167" fill="#1A4674"></path>
                <path d="M213.390132,70.6 C213.388462,66.575 212.525948,63.0183334 210.781714,59.9658334 L107.026963,119.590834 L210.906958,179.6525 C212.57187,176.645833 213.399317,173.158333 213.400987,169.220833 C213.400987,169.220833 213.400987,103.48 213.390132,70.6" fill="#1B598E"></path>
                <polyline fill="#FFFFFF" points="207.678164 123.884167 199.560674 123.884167 199.560674 131.9875 191.441513 131.9875 191.441513 123.884167 183.324859 123.884167 183.324859 115.783333 191.441513 115.783333 191.441513 107.681666 199.560674 107.681666 199.560674 115.783333 207.678164 115.783333 207.678164 123.884167"></polyline>
                <polyline fill="#FFFFFF" points="178.057925 123.884167 169.94127 123.884167 169.94127 131.9875 161.823779 131.9875 161.823779 123.884167 153.706289 123.884167 153.706289 115.783333 161.823779 115.783333 161.823779 107.681666 169.94127 107.681666 169.94127 115.783333 178.057925 115.783333 178.057925 123.884167"></polyline>
                <path d="M137.450435,137.18 C131.398638,147.891667 119.898721,155.130833 106.700493,155.130833 C93.5832568,155.130833 82.1484667,147.9825 76.0657763,137.384167 C73.1108496,132.234167 71.4117041,126.271667 71.4117041,119.910833 C71.4117041,100.46 87.2116699,84.6916667 106.700493,84.6916667 C119.733398,84.6916667 131.108071,91.7508334 137.22082,102.240833 L168.065112,84.5141666 C155.805381,63.3925 132.916597,49.1825 106.700493,49.1825 C67.5608643,49.1825 35.8331836,80.8491667 35.8331836,119.910833 C35.8331836,132.725833 39.2490088,144.743333 45.2189795,155.109167 C57.4478174,176.3425 80.4017285,190.64 106.700493,190.64 C133.047685,190.64 156.0375,176.285 168.248804,154.989167 L137.450435,137.18" fill="#FFFFFF"></path>
            </g>
        </g>
    </g>
</svg>