<?xml version="1.0" encoding="UTF-8"?>
<svg width="54px" height="55px" viewBox="0 0 54 55" version="1.1" xmlns="http://www.w3.org/2000/svg" xmlns:xlink="http://www.w3.org/1999/xlink">
    <title>应用开发文档</title>
    <defs>
        <radialGradient cx="82.0631677%" cy="-2.99296061%" fx="82.0631677%" fy="-2.99296061%" r="308.707112%" gradientTransform="translate(0.820632,-0.029930),scale(1.000000,0.887080),rotate(-69.343912),scale(1.000000,0.851572),translate(-0.820632,0.029930)" id="radialGradient-1">
            <stop stop-color="#08102C" stop-opacity="0.603680377" offset="0%"></stop>
            <stop stop-color="#0A224F" offset="100%"></stop>
        </radialGradient>
    </defs>
    <g id="官网" stroke="none" stroke-width="1" fill="none" fill-rule="evenodd">
        <g id="官网改版-文档首页" transform="translate(-80.000000, -1122.000000)" fill-rule="nonzero">
            <g id="编组-6备份" transform="translate(60.000000, 978.000000)">
                <g id="编组-2" transform="translate(0.000000, 122.000000)">
                    <g id="编组-5" transform="translate(20.000000, 22.000000)">
                        <rect id="矩形" fill="#000000" opacity="0" x="0" y="0" width="54" height="54"></rect>
                        <path d="M41.6645481,28.4871137 L51.0774504,33.9286838 C51.8437717,34.3711109 52.3144903,35.1900323 52.3111165,36.0748931 L52.3111165,46.941134 C52.3111165,47.8250676 51.8412155,48.64237 51.0774504,49.0873433 L41.6645481,54.5120141 C41.2892797,54.7289854 40.8643535,54.8454035 40.4309002,54.8500001 C39.9967911,54.8500001 39.5706468,54.7334351 39.1972523,54.5120141 L29.78435,49.0873433 C28.9984787,48.6580237 28.5069187,47.836601 28.4999852,46.941134 L28.4999852,36.0748931 C28.4964989,35.1855627 28.97512,34.3641455 29.7505514,33.9286838 L39.180353,28.4871137 C39.9498882,28.0468115 40.8950129,28.0468115 41.6645481,28.4871137 Z M40.4309002,29.8390566 C40.2934018,29.844878 40.1596452,29.8855865 40.0422166,29.9573516 L30.6293143,35.3820224 C30.3656734,35.5136011 30.1965374,35.7803156 30.1899329,36.0748931 L30.1899329,46.941134 C30.1923809,47.2233805 30.3476268,47.4821235 30.5955157,47.6171054 L40.008418,53.0586755 C40.2498346,53.1941446 40.5443686,53.1941446 40.7857852,53.0586755 L50.1986875,47.6171054 C50.4375472,47.4752595 50.584939,47.2189258 50.5873711,46.941134 L50.5873711,36.0748931 C50.5842913,35.7928061 50.4378133,35.5316933 50.1986875,35.3820224 L40.8195838,29.9573516 C40.7021552,29.8855865 40.5683985,29.844878 40.4309002,29.8390566 Z M47.5623989,35.7538067 C48.7197179,35.7538067 49.6579103,36.6919991 49.6579103,37.8493181 C49.6579103,39.0066372 48.7197179,39.9448296 47.5623989,39.9448296 C46.9834852,39.9448296 46.4594014,39.7100754 46.080149,39.3305688 L41.1739662,41.3078871 L41.1750301,47.7682138 C41.9724682,48.0249155 42.561353,48.7464445 42.6225459,49.6136619 L42.6278074,49.7633148 C42.6278074,50.9206338 41.6896149,51.8588262 40.5322959,51.8588262 C39.3749769,51.8588262 38.4367844,50.9206338 38.4367844,49.7633148 C38.4367844,48.9879193 38.8579301,48.3108876 39.4839598,47.9484813 L39.4839662,41.2788871 L34.7564703,39.3553481 C34.4128791,39.6878376 33.9558435,39.9038079 33.4490544,39.9395681 L33.2994015,39.9448296 C32.1420825,39.9448296 31.20389,39.0066372 31.20389,37.8493181 C31.20389,36.6919991 32.1420825,35.7538067 33.2994015,35.7538067 C34.4064023,35.7538067 35.3129168,36.6121907 35.3896515,37.6996653 L35.3925,37.7745 L40.2989662,39.7038871 L45.470548,37.7244198 C45.5322452,36.6748326 46.3664636,35.8328962 47.412746,35.7590681 L47.5623989,35.7538067 Z M38.0025,1.2825 C42.4575,1.2825 46.1025,4.9275 46.1025,9.45 L46.1025,9.45 L46.1025,24.3675 C46.1025,25.38 45.2925,26.19 44.28,26.19 C43.2675,26.19 42.4575,25.38 42.4575,24.3675 L42.4575,24.3675 L42.4575,9.45 C42.4575,7.02 40.4325,4.995 38.0025,4.995 L38.0025,4.995 L12.96,4.995 C10.53,4.995 8.505,7.02 8.505,9.45 L8.505,9.45 L8.505,43.4025 C8.505,45.8325 10.53,47.8575 12.96,47.8575 L12.96,47.8575 L23.6925,47.8575 C24.705,47.8575 25.515,48.6675 25.515,49.68 C25.515,50.6925 24.705,51.5025 23.6925,51.5025 L23.6925,51.5025 L12.42,51.5025 C10.4625,51.3675 8.64,50.5575 7.2225,49.14 C5.67,47.5875 4.7925,45.5625 4.7925,43.4025 L4.7925,43.4025 L4.7925,9.45 C4.7925,4.9275 8.4375,1.2825 12.96,1.2825 L12.96,1.2825 Z M20.4525,35.7075 C21.06,35.7075 21.6675,36.1125 22.0725,36.6525 C22.41,37.1925 22.41,37.935 22.0725,38.475 C21.735,39.0825 21.1275,39.42 20.4525,39.42 L20.4525,39.42 L14.985,39.42 C14.31,39.42 13.7025,39.015 13.365,38.475 C13.0275,37.935 13.0275,37.1925 13.365,36.6525 C13.7025,36.045 14.31,35.7075 14.985,35.7075 L14.985,35.7075 Z M27.8775,24.435 C28.89,24.435 29.7,25.245 29.6325,26.19 C29.6325,26.73 29.43,27.2025 29.0925,27.54 C28.755,27.8775 28.2825,28.08 27.81,28.08 L27.81,28.08 L14.9175,28.08 C13.905,28.08 13.095,27.27 13.095,26.2575 C13.095,25.245 13.905,24.435 14.9175,24.435 L14.9175,24.435 Z M35.775,13.1625 C36.855,13.1625 37.665,13.9725 37.5975,14.985 C37.5975,15.9975 36.7875,16.8075 35.775,16.8075 L35.775,16.8075 L14.9175,16.8075 C13.905,16.8075 13.095,15.9975 13.095,14.985 C13.095,13.9725 13.905,13.1625 14.9175,13.1625 L14.9175,13.1625 Z" id="形状结合" fill="url(#radialGradient-1)"></path>
                    </g>
                </g>
            </g>
        </g>
    </g>
</svg>