<?xml version="1.0" encoding="UTF-8"?>
<svg width="16px" height="16px" viewBox="0 0 16 16" version="1.1" xmlns="http://www.w3.org/2000/svg" xmlns:xlink="http://www.w3.org/1999/xlink">
    <title>搜索</title>
    <g id="官网" stroke="none" stroke-width="1" fill="none" fill-rule="evenodd">
        <g id="官网改版-文档首页" transform="translate(-136.000000, -357.000000)" fill-rule="nonzero">
            <g id="编组-7" transform="translate(60.000000, 130.000000)">
                <g id="编组" transform="translate(60.000000, 214.000000)">
                    <g id="搜索" transform="translate(16.000000, 13.000000)">
                        <rect id="矩形" fill="#000000" opacity="0" x="0" y="0" width="16" height="16"></rect>
                        <path d="M15.8106176,15.8302916 C15.5784642,16.0565588 15.2020986,16.0565588 14.9699132,15.8302916 L12.5919161,13.3793247 C11.2634559,14.4296614 9.57203411,15.0613414 7.7279867,15.0613414 C3.45994017,15.0613733 0,11.6898223 0,7.53070267 C0,3.37158305 3.45994017,0 7.72798669,0 C11.9960012,0 15.4559414,3.37155105 15.4559414,7.53070267 C15.4559414,9.4753595 14.6930373,11.2421504 13.4512388,12.5782242 L15.8106176,15.0110207 C16.042803,15.2373838 16.042803,15.6041523 15.8106176,15.8302916 Z M7.72798669,1.52241719 C4.11654056,1.52241719 1.55245605,4.01142053 1.55245605,7.53067067 C1.55245605,11.0498568 4.11657256,13.5390521 7.72798669,13.5390521 C11.3394008,13.5390521 13.9034853,11.0498568 13.9034853,7.53067067 C13.9034853,4.01145252 11.3394008,1.52241719 7.72798669,1.52241719 Z" id="形状" fill="#6D7278"></path>
                    </g>
                </g>
            </g>
        </g>
    </g>
</svg>