<?xml version="1.0" encoding="UTF-8"?>
<svg width="60px" height="60px" viewBox="0 0 60 60" version="1.1" xmlns="http://www.w3.org/2000/svg" xmlns:xlink="http://www.w3.org/1999/xlink">
    <title>应用开发样例</title>
    <defs>
        <radialGradient cx="82.0631677%" cy="-2.99296061%" fx="82.0631677%" fy="-2.99296061%" r="278.423463%" gradientTransform="translate(0.820632,-0.029930),rotate(-66.975377),scale(1.000000,0.851572),translate(-0.820632,0.029930)" id="radialGradient-1">
            <stop stop-color="#08102C" stop-opacity="0.603680377" offset="0%"></stop>
            <stop stop-color="#0A224F" offset="100%"></stop>
        </radialGradient>
    </defs>
    <g id="官网" stroke="none" stroke-width="1" fill="none" fill-rule="evenodd">
        <g id="官网改版-文档首页" transform="translate(-900.000000, -1119.000000)" fill-rule="nonzero">
            <g id="编组-6备份" transform="translate(60.000000, 978.000000)">
                <g id="编组-2备份-2" transform="translate(820.000000, 122.000000)">
                    <g id="应用开发样例" transform="translate(20.000000, 19.000000)">
                        <rect id="矩形" fill="#000000" opacity="0" x="0" y="0" width="60" height="60"></rect>
                        <path d="M51.7382813,34.6933594 L45.4160156,34.6933594 L45.4160156,25.3066406 L51.7382813,25.3066406 C52.546875,25.3066406 53.203125,24.6503906 53.203125,23.8417969 C53.203125,23.0332031 52.546875,22.3769531 51.7382813,22.3769531 L45.4160156,22.3769531 L45.4160156,20.1210938 C45.4160156,17.0683594 42.9316406,14.5839844 39.8789063,14.5839844 L37.6230469,14.5839844 L37.6230469,8.26171875 C37.6230469,7.453125 36.9667969,6.796875 36.1582031,6.796875 C35.3496094,6.796875 34.6933594,7.453125 34.6933594,8.26171875 L34.6933594,14.5839844 L25.3066406,14.5839844 L25.3066406,8.26171875 C25.3066406,7.453125 24.6503906,6.796875 23.8417969,6.796875 C23.0332031,6.796875 22.3769531,7.453125 22.3769531,8.26171875 L22.3769531,14.5839844 L20.1210938,14.5839844 C17.0683594,14.5839844 14.5839844,17.0683594 14.5839844,20.1210938 L14.5839844,22.3769531 L8.26171875,22.3769531 C7.453125,22.3769531 6.796875,23.0332031 6.796875,23.8417969 C6.796875,24.6503906 7.453125,25.3066406 8.26171875,25.3066406 L14.5839844,25.3066406 L14.5839844,34.6933594 L8.26171875,34.6933594 C7.453125,34.6933594 6.796875,35.3496094 6.796875,36.1582031 C6.796875,36.9667969 7.453125,37.6230469 8.26171875,37.6230469 L14.5839844,37.6230469 L14.5839844,39.8789062 C14.5839844,42.9316406 17.0683594,45.4160156 20.1210938,45.4160156 L22.3769531,45.4160156 L22.3769531,51.7382813 C22.3769531,52.546875 23.0332031,53.203125 23.8417969,53.203125 C24.6503906,53.203125 25.3066406,52.546875 25.3066406,51.7382813 L25.3066406,45.4160156 L34.6933594,45.4160156 L34.6933594,51.7382813 C34.6933594,52.546875 35.3496094,53.203125 36.1582031,53.203125 C36.9667969,53.203125 37.6230469,52.546875 37.6230469,51.7382813 L37.6230469,45.4160156 L39.8789062,45.4160156 C42.9316406,45.4160156 45.4160156,42.9316406 45.4160156,39.8789063 L45.4160156,37.6230469 L51.7382813,37.6230469 C52.546875,37.6230469 53.203125,36.9667969 53.203125,36.1582031 C53.203125,35.3496094 52.546875,34.6933594 51.7382813,34.6933594 Z M42.4863281,39.8789062 C42.4863281,41.3144531 41.3203125,42.4863281 39.8789062,42.4863281 L20.1210938,42.4863281 C18.6855469,42.4863281 17.5136719,41.3203125 17.5136719,39.8789062 L17.5136719,20.1210938 C17.5136719,18.6855469 18.6796875,17.5136719 20.1210938,17.5136719 L39.8789062,17.5136719 C41.3144531,17.5136719 42.4863281,18.6796875 42.4863281,20.1210938 L42.4863281,39.8789062 L42.4863281,39.8789062 Z M29.6777344,24.2050781 C26.4785156,27.4042969 30.3867188,31.734375 28.640625,33.4746094 C28.1132812,34.0019531 27.3632812,34.0605469 26.6601562,33.3515625 C25.9863281,32.6777344 25.921875,31.8925781 26.765625,31.0546875 L24.5742188,28.8632812 C22.453125,30.984375 22.5585938,33.3984375 24.5566406,35.3964844 C26.6425781,37.4824219 29.1269531,37.4414062 30.8496094,35.7128906 C34.2011719,32.3613281 30.1289063,28.078125 31.78125,26.4257812 C32.2617188,25.9453125 32.8945313,25.9746094 33.4511719,26.53125 C34.0664063,27.1464844 34.0371094,27.8085937 33.3457031,28.5 L35.5371094,30.6914062 C37.4765625,28.7519531 37.4589844,26.4257812 35.5195313,24.4863281 C33.5859375,22.546875 31.2832031,22.59375 29.6777344,24.2050781 L29.6777344,24.2050781 Z" id="形状" fill="url(#radialGradient-1)"></path>
                    </g>
                </g>
            </g>
        </g>
    </g>
</svg>