<?xml version="1.0" encoding="UTF-8"?>
<svg width="54px" height="54px" viewBox="0 0 54 54" version="1.1" xmlns="http://www.w3.org/2000/svg" xmlns:xlink="http://www.w3.org/1999/xlink">
    <title>快速上手</title>
    <defs>
        <radialGradient cx="82.0631677%" cy="-2.99296061%" fx="82.0631677%" fy="-2.99296061%" r="278.497808%" gradientTransform="translate(0.820632,-0.029930),scale(1.000000,0.999685),rotate(-66.981877),scale(1.000000,0.851572),translate(-0.820632,0.029930)" id="radialGradient-1">
            <stop stop-color="#08102C" stop-opacity="0.603680377" offset="0%"></stop>
            <stop stop-color="#0A224F" offset="100%"></stop>
        </radialGradient>
    </defs>
    <g id="官网" stroke="none" stroke-width="1" fill="none" fill-rule="evenodd">
        <g id="官网改版-文档首页" transform="translate(-490.000000, -644.000000)" fill-rule="nonzero">
            <g id="编组-6" transform="translate(60.000000, 500.000000)">
                <g id="编组-2备份" transform="translate(410.000000, 122.000000)">
                    <g id="快速上手" transform="translate(20.000000, 22.000000)">
                        <rect id="矩形" fill="#000000" opacity="0" x="0" y="0" width="54" height="54"></rect>
                        <path d="M7.92706347,37.9814466 C8.3357284,37.5480664 9.02462534,37.5480664 9.43329027,37.9814466 C9.8549064,38.3782935 9.8549064,39.0672444 9.43329027,39.5135758 L6.76706595,42.1680361 C6.34550377,42.6014163 5.6435477,42.6014163 5.23612392,42.1680361 C4.81332059,41.74642 4.81332059,41.0704742 5.23612392,40.6370941 L7.92706347,37.9814466 L7.92706347,37.9814466 Z M41.4716382,19.2765945 L41.4716382,19.2765945 C41.4716382,22.9768117 38.4733231,25.9633628 34.7731058,25.9633628 C31.0728886,25.9633628 28.0616222,22.9768117 28.0616222,19.2765945 C28.0616222,15.6034129 31.0728886,12.5910133 34.7731058,12.5910133 C38.4733231,12.5910133 41.4716382,15.5763772 41.4716382,19.2765945 L41.4716382,19.2765945 Z M34.7731058,14.7343321 L34.7731058,14.7343321 C32.2599757,14.7343321 30.2320307,16.7505131 30.2320307,19.2765945 C30.2320307,21.7779605 32.2599757,23.7941416 34.7731058,23.7941416 C37.2744719,23.7941416 39.3165554,21.7779605 39.3165554,19.2765945 C39.3165554,16.7504592 37.2744719,14.7343321 34.7731058,14.7343321 L34.7731058,14.7343321 Z M10.045667,34.0645122 L10.045667,34.0645122 C10.045667,32.6748464 10.1222411,31.3087626 10.3012378,29.9191508 C10.3766247,29.4327785 10.4284295,28.9487807 10.5179548,28.4634877 L10.1351923,28.6165819 C9.25434756,28.9746292 8.43815095,29.4975346 7.71040034,30.1735343 C6.98378298,30.837716 5.84731354,30.7988623 5.1713678,30.0851962 C5.04417602,29.9191508 4.92874828,29.7778206 4.86517941,29.6117752 C3.74290232,27.378931 3.38604226,24.8658009 3.76875081,22.4550934 C4.1515133,20.0562039 5.24788796,17.7962701 7.08620558,15.9602729 L7.08620558,15.9602729 L7.08620558,15.9602729 C8.74433939,14.2620983 10.8240893,13.2045233 12.9792261,12.7311023 C14.8175437,12.3483398 16.706533,12.3990115 18.5437174,12.8724325 L18.8746211,12.5403416 L18.9017107,12.489724 L18.8746211,12.489724 C22.7538349,8.63522532 27.4503787,6.02080588 32.4001188,4.69357574 C37.5288555,3.30158953 42.9390654,3.30158953 48.0689353,4.69357574 C48.7201658,4.85962116 49.1912664,5.35662418 49.3573118,5.96900101 L49.3573118,5.99490345 L49.3573118,6.00785464 C50.7222084,11.1236401 50.7222084,16.5219781 49.3443606,21.6378175 C48.0183176,26.5757396 45.402711,31.2958654 41.5364483,35.1491768 L41.4210206,35.2775557 L41.1666371,35.507224 C41.6636401,37.3195853 41.7024938,39.2321565 41.30678,41.0705281 C40.8474974,43.2139009 39.7746508,45.2805917 38.0905607,46.9529178 L37.9893253,47.0554483 C36.1768562,48.8148714 33.932248,49.9006693 31.5957402,50.2822445 C29.1591302,50.6531891 26.6330489,50.2951957 24.3613511,49.1599135 C23.4934036,48.7265333 23.1365975,47.6289715 23.5711648,46.7480727 C23.6465517,46.6079298 23.7501615,46.4548356 23.8761661,46.3264566 C24.5404017,45.6127905 25.0762044,44.7836966 25.4341978,43.9145619 L25.587292,43.5200893 C25.1021069,43.6096146 24.5909655,43.6861347 24.1069676,43.7496497 C22.677261,43.9416515 21.2487954,44.0052744 19.8190888,43.9923232 C19.335091,43.9923232 18.9017108,43.8015625 18.5696199,43.4941869 L18.5696199,43.4941869 L10.5426701,35.4812137 C10.1729128,35.0867412 9.99386216,34.588551 10.045667,34.0645122 L10.045667,34.0645122 Z M13.8472276,30.3901975 L13.8472276,30.3901975 C13.7211691,31.4112392 13.6434618,32.4452322 13.6187465,33.4533227 L20.5858008,40.432141 C21.6056554,40.4074258 22.6266971,40.3179005 23.6465516,40.1895215 C24.8854437,40.0246633 26.1361537,39.7938078 27.3467689,39.4370017 C27.5257656,39.3863841 27.7295314,39.3604277 27.9214793,39.3734328 C28.9048545,39.398148 29.6950408,40.2413803 29.6432359,41.2365196 C29.5926183,42.6273187 29.2875631,43.9922692 28.7517604,45.3065481 C28.5468613,45.7528795 28.317193,46.2251133 28.0616762,46.6714447 C29.0320463,46.889295 30.0401368,46.9140643 31.0352221,46.7232496 C32.6556895,46.4547277 34.2114007,45.7269231 35.4879592,44.4904055 L35.5515821,44.4126981 C36.7386152,43.2527006 37.4664198,41.7970915 37.7855594,40.3050032 C38.1412323,38.7481047 38.0022765,37.1146862 37.4275662,35.6096466 C37.1719955,34.9713674 37.3509921,34.1681759 37.911564,33.6700397 L38.4733232,33.1330497 L38.9208417,32.6749543 L38.9844106,32.6101983 C42.4291111,29.1914542 44.7255781,25.0449055 45.8737576,20.7193063 C46.9972759,16.5468552 47.0996984,12.1200206 46.1293283,7.89571072 C41.9191569,6.95124308 37.5288555,7.05361168 33.3445864,8.16304547 C28.9801875,9.33831466 24.8465901,11.6464917 21.4266048,15.0665309 L20.9284685,15.5505288 L20.9167045,15.5505288 L20.4327066,16.0875187 C19.9463344,16.6610418 19.1560942,16.9047946 18.4283436,16.6104242 C16.9232501,16.036901 15.2768803,15.9331833 13.7459383,16.2653821 C12.2408987,16.5727577 10.7982408,17.3252775 9.62410486,18.4982262 L9.62410486,18.4864622 C8.33578235,19.7748387 7.57031131,21.3446344 7.31468665,23.0287246 C7.14864124,23.9861435 7.16159243,25.005998 7.36649153,25.9893732 C7.82577413,25.7326153 8.28505673,25.4912369 8.74433934,25.2992351 C10.045667,24.7633784 11.3976664,24.4830385 12.7755142,24.3936211 C12.9674621,24.3936211 13.1853124,24.4065723 13.3631218,24.4830385 C14.3334919,24.7127607 14.8693486,25.7326153 14.6126446,26.6770829 C14.281741,27.9029698 14.0261703,29.1536258 13.8472276,30.3901975 L13.8472276,30.3901975 Z M14.562027,44.6045921 L14.562027,44.6045921 C14.9706919,44.1841631 15.6466376,44.1841631 16.0682538,44.6045921 C16.5028211,45.0262082 16.5028211,45.702154 16.0682538,46.1225829 L13.3890783,48.8029456 C12.9674621,49.2104233 12.2915164,49.2104233 11.8840387,48.8029456 C11.4494713,48.3942807 11.4494713,47.6794274 11.8840387,47.2849548 L14.562027,44.6045921 L14.562027,44.6045921 Z M11.2445722,41.2741861 L11.2445722,41.2741861 C11.6531832,40.8655211 12.3291828,40.8655211 12.750799,41.2741861 C13.1853664,41.7087535 13.1853664,42.3846991 12.750799,42.8063153 L6.67635344,48.8912837 C6.25592447,49.3128998 5.57997878,49.3128998 5.17131385,48.8912837 C4.72498244,48.4579035 4.72498244,47.7807706 5.17131385,47.3603417 L11.2445722,41.2741861 L11.2445722,41.2741861 Z" id="形状" fill="url(#radialGradient-1)"></path>
                    </g>
                </g>
            </g>
        </g>
    </g>
</svg>