<?xml version="1.0" encoding="UTF-8"?>
<svg width="232px" height="48px" viewBox="0 0 232 48" version="1.1" xmlns="http://www.w3.org/2000/svg" xmlns:xlink="http://www.w3.org/1999/xlink">
    <title>cloud</title>
    <defs>
        <linearGradient x1="49.9999885%" y1="98.082503%" x2="49.9999885%" y2="0.766550128%" id="linearGradient-1">
            <stop stop-color="#ED1C23" offset="0%"></stop>
            <stop stop-color="#FBAF3B" offset="100%"></stop>
        </linearGradient>
    </defs>
    <g id="官网页面" stroke="none" stroke-width="1" fill="none" fill-rule="evenodd">
        <g id="官网布局参考" transform="translate(-12.000000, -9.000000)">
            <g id="cloud" transform="translate(12.000000, 9.000000)">
                <g id="编组" transform="translate(55.600000, 12.000000)" fill="#333344">
                    <path d="M122.482117,0.766233028 L122.806466,0.776838706 L123.259681,0.811611108 C123.344889,0.820150615 123.434668,0.830244728 123.528618,0.842167278 L124.139163,0.93783445 C125.22949,1.14115059 126.656934,1.58207632 128.021843,2.53444145 L128.53704,2.917368 L128.07624,6.610968 L127.664237,5.99008792 L127.509966,5.79561717 L127.254831,5.51078141 C126.490085,4.70909045 124.770411,3.322968 122.02584,3.322968 C117.47544,3.322968 113.30184,7.131768 112.72584,11.814168 C112.43784,14.125368 113.05944,16.282968 114.48024,17.890968 C115.82184,19.407768 117.73704,20.245368 119.87064,20.245368 C122.475731,20.245368 124.45045,19.0203267 125.476061,18.2050017 L125.834931,17.9045983 L126.25944,17.497368 L126.76584,16.945368 L126.30024,20.710968 L126.20664,20.770968 C124.522598,21.8742101 122.864298,22.381368 121.629933,22.6128597 L121.00108,22.713715 L120.470673,22.771448 L120.053073,22.7976139 L119.60904,22.801368 C116.69064,22.798968 114.07704,21.658968 112.24824,19.590168 C110.39784,17.494968 109.57944,14.710968 109.94424,11.754168 C110.673346,5.87473271 115.908425,1.05792025 121.750023,0.779664357 L122.482117,0.766233028 Z M140.65632,9.784488 C142.37952,9.784488 143.99952,10.497288 145.09872,11.740488 C146.20032,12.988488 146.68992,14.620488 146.47632,16.336488 C146.04432,19.840488 142.66752,22.802088 139.10112,22.802088 C137.37312,22.802088 135.75312,22.086888 134.65152,20.841288 C133.55472,19.600488 133.06752,17.978088 133.27392,16.278888 C133.71312,12.758088 137.09232,9.784488 140.65632,9.784488 Z M160.1016,10.319448 L158.616,22.338648 L156.0576,22.338648 L156.2184,21.047448 C155.2824,21.976248 153.756,22.801848 152.0448,22.801848 C150.7272,22.801848 149.5656,22.309848 148.7784,21.417048 C147.9744,20.507448 147.6096,19.233048 147.7704,17.920248 L148.6704,10.645848 L151.2672,10.319448 L150.3528,17.721048 C150.252,18.505848 150.4368,19.187448 150.8784,19.689048 C151.368,20.241048 152.148,20.533848 153.1272,20.533848 C154.6536,20.533848 156.4272,19.379448 156.6384,17.661048 L157.5072,10.645848 L160.1016,10.319448 Z M175.87632,0.000168 L173.10912,22.339368 L170.55312,22.339368 L170.74992,20.750568 C169.64592,21.940968 167.86752,22.771368 166.27872,22.771368 C164.49792,22.771368 163.03872,22.188168 162.06192,21.081768 C161.04192,19.929768 160.60992,18.264168 160.84032,16.394568 C161.32512,12.487368 164.26992,9.758568 168.00672,9.758568 C169.57152,9.758568 171.07152,10.591368 171.85872,11.822568 L173.21472,0.854568 L175.87632,0.000168 Z M133.80648,0.002088 L131.03928,22.338888 L128.48328,22.338888 L131.14728,0.856488 L133.80648,0.002088 Z M140.41872,12.167688 C138.10992,12.167688 136.14912,13.960488 135.85632,16.336488 C135.71232,17.481288 136.00512,18.532488 136.67952,19.293288 C137.32032,20.018088 138.26592,20.418888 139.33632,20.418888 C141.62832,20.418888 143.57712,18.638088 143.86752,16.278888 C144.01392,15.110088 143.72352,14.042088 143.04672,13.276488 C142.41312,12.561288 141.47952,12.167688 140.41872,12.167688 Z M167.91552,12.139368 C165.63792,12.139368 163.76592,13.891368 163.46592,16.308168 C163.31712,17.496168 163.60272,18.564168 164.26512,19.315368 C164.87712,20.006568 165.79152,20.390568 166.83552,20.390568 C169.12992,20.390568 171.00912,18.648168 171.30432,16.248168 C171.45552,15.038568 171.17472,13.963368 170.51472,13.214568 C169.89072,12.511368 168.99312,12.139368 167.91552,12.139368 Z" id="形状结合"></path>
                    <path d="M23.02176,0.383928 L24.61776,22.324728 L21.89136,22.324728 L21.04416,8.169528 L12.06336,23.692728 L7.16496,8.162328 L2.74896,22.324728 L0.00096,22.324728 L7.08576,0.453528 L12.79776,17.627928 L23.02176,0.383928 Z M96.51456,9.772008 C98.28576,9.772008 99.72576,10.352808 100.67856,11.449608 C101.726437,12.6569926 102.158778,14.4594636 101.941605,16.6833558 L101.84496,17.454408 L91.93056,17.454408 C92.09136,19.350408 93.49776,20.432808 95.82576,20.432808 C97.63176,20.432808 98.7044267,19.9994747 99.69376,19.4716969 L100.81296,18.848808 L100.50096,21.371208 L100.39536,21.431208 C99.17136,22.117608 97.79136,22.787208 95.59536,22.787208 C93.50256,22.787208 91.72176,22.079208 90.58896,20.795208 C89.59776,19.674408 89.18496,18.196008 89.39136,16.523208 C89.93856,12.090408 93.39216,9.772008 96.51456,9.772008 Z M33.798,9.772008 C35.5692,9.772008 37.0092,10.352808 37.962,11.449608 C39.0098769,12.6569926 39.4422178,14.4594636 39.2250445,16.6833558 L39.1284,17.454408 L29.214,17.454408 C29.3748,19.350408 30.7812,20.432808 33.1092,20.432808 C34.731,20.432808 35.7615,20.083158 36.6715125,19.6298955 L37.2655042,19.3150705 L38.0964,18.848808 L37.7844,21.371208 L37.6788,21.431208 C36.4548,22.117608 35.0748,22.787208 32.8788,22.787208 C30.786,22.787208 29.0052,22.079208 27.8724,20.795208 C26.8812,19.674408 26.4684,18.196008 26.6748,16.523208 C27.222,12.090408 30.6756,9.772008 33.798,9.772008 Z M84.94896,10.303368 L84.74256,12.033768 C85.82496,11.054568 87.67536,10.332168 89.25696,10.332168 L89.52576,10.332168 L89.25456,12.614568 L89.04096,12.614568 C87.22656,12.614568 84.57216,13.452168 84.34176,15.314568 L83.47536,22.324968 L80.91696,22.324968 L82.36656,10.632168 L84.94896,10.303368 Z M55.46184,9.770568 C56.46264,9.770568 57.39144,10.197768 58.07784,10.975368 C58.91784,11.925768 59.30184,13.264968 59.13144,14.652168 L58.17624,22.324968 L55.64904,22.324968 L56.57064,14.880168 C56.70024,13.862568 56.54424,13.070568 56.12184,12.592968 C55.79544,12.225768 55.30584,12.038568 54.66264,12.038568 C52.70904,12.038568 51.48504,13.384968 51.33144,14.652168 L50.37624,22.324968 L47.82024,22.324968 L48.74184,14.880168 C48.86904,13.850568 48.71784,13.053768 48.30024,12.583368 C47.98104,12.220968 47.49864,12.038568 46.86264,12.038568 C45.34104,12.038568 43.56264,13.204968 43.34664,14.940168 L42.43464,22.324968 L39.87624,22.324968 L41.33064,10.603368 L43.92504,10.308168 L43.77864,11.472168 C44.80584,10.394568 46.19784,9.770568 47.63304,9.770568 C49.00824,9.770568 50.21304,10.560168 50.85864,11.853768 C51.77304,10.723368 52.90824,9.770568 55.46184,9.770568 Z M77.17392,1.270248 L76.00752,3.797448 L66.42192,3.797448 L65.57232,10.663848 L72.19872,10.663848 L72.19872,11.143848 L72.07872,11.143848 L71.196,12.922248 L71.19552,13.162248 L65.26272,13.162248 L64.12512,22.325448 L61.39632,22.325448 L64.00752,1.270248 L77.17392,1.270248 Z M79.88928,10.308168 L78.39168,22.324968 L75.83328,22.324968 L77.28768,10.603368 L79.88928,10.308168 Z M96.27456,12.184008 C94.38336,12.184008 92.90496,13.278408 92.26176,15.131208 L99.42816,15.131208 C99.45216,14.442408 99.19056,13.710408 98.71536,13.175208 C98.14176,12.527208 97.29936,12.184008 96.27456,12.184008 Z M33.5604,12.184008 C31.6692,12.184008 30.1884,13.278408 29.5452,15.131208 L36.7092,15.131208 C36.7356,14.442408 36.474,13.710408 35.9988,13.175208 C35.4252,12.527208 34.5828,12.184008 33.5604,12.184008 Z M79.00776,4.569528 C79.92696,4.569528 80.71416,5.318328 80.76216,6.237528 C80.78616,6.688728 80.63496,7.113528 80.33016,7.432728 C80.02776,7.751928 79.61016,7.929528 79.15896,7.929528 C78.24216,7.929528 77.45496,7.180728 77.40456,6.261528 C77.38056,5.810328 77.53416,5.385528 77.83896,5.066328 C78.14376,4.747128 78.55896,4.569528 79.00776,4.569528 Z" id="形状结合"></path>
                </g>
                <g id="MemFireDB备份-4">
                    <polygon id="Fill-1" fill="#F9AE7C" points="11.1312237 17.4819584 20.325785 0.00253643071 0.494799098 11.4520822"></polygon>
                    <polygon id="Fill-3" fill="#F9AE7C" points="41.7519907 11.454326 21.9122249 0.000390220109 31.0389854 17.5007865"></polygon>
                    <polygon id="Fill-5" fill="#F9904A" points="10.6434486 18.3264923 0.000195110054 12.2927139 0.000195110054 35.2118042"></polygon>
                    <polygon id="Fill-7" fill="url(#linearGradient-1)" points="11.8557649 18.1998171 21.1195903 46.7361258 30.3126883 18.217377 21.1191025 0.589183586"></polygon>
                    <polygon id="Fill-9" fill="#F9904A" points="42.242595 12.2979331 31.526663 18.3448814 42.242595 35.2165356"></polygon>
                    <polygon id="Fill-13" fill="#FB6D33" points="30.9851838 19.3120907 21.750625 47.9571733 41.8196451 36.3705628"></polygon>
                    <polygon id="Fill-15" fill="#FB6D33" points="11.1860009 19.2954088 0.423242485 36.3704652 20.4898238 47.956588"></polygon>
                    <path d="M25.7458935,16.5030913 C25.4215231,15.2870679 24.4484117,14.2934699 24.4484117,14.2934699 C24.4484117,14.2934699 24.4630449,15.3792574 24.1240412,16.0772636 C23.7791842,16.7869764 23.0899579,17.273776 23.0899579,17.273776 C23.0899579,17.273776 24.0435583,14.5217487 23.2592159,12.9106274 C22.2968356,10.9317237 21.0759344,10.0010487 21.0759344,10.0010487 C21.0759344,10.0010487 21.4744467,12.0565331 20.8388757,13.5027864 C20.2145235,14.9256265 18.3453692,15.7397232 17.4532285,16.5913786 C16.7942443,17.2196329 16.3206146,18.4590696 16.1172124,19.0648863 C16.1020913,19.1092738 16.0972136,19.1536614 16.0942869,19.1975611 C16.1074569,18.8492897 16.2381806,17.0581794 17.5566368,16.0411682 C18.7887568,15.0904945 17.6756539,13.0062313 17.6756539,13.0062313 C17.6756539,13.0062313 17.8805195,13.9559295 17.5688312,14.6314981 C17.2566551,15.3065789 16.5937687,15.6841168 16.2923236,16.3967563 C16.0235595,17.0318395 16.0801415,18.9185537 16.0908725,19.2175599 C16.0908725,19.2253643 16.0918481,19.2326809 16.0918481,19.2395098 C16.0918481,19.254143 16.0923358,19.2624352 16.0923358,19.2624352 L16.0923358,19.247802 C16.0967258,19.3995 16.1630632,19.5463203 16.2845192,19.6477776 L20.7305896,23.8475215 C20.9305774,24.0138528 21.2212914,24.0143406 21.421767,23.8489848 L25.9688068,19.5902201 C26.1014816,19.4804707 26.1736723,19.3151149 26.1624535,19.1424425 C26.1234315,18.5263825 25.9585635,17.3010914 25.7458935,16.5030913" id="Fill-17" fill="#FFFFFF"></path>
                </g>
            </g>
        </g>
    </g>
</svg>