<?xml version="1.0" encoding="UTF-8"?>
<svg width="300px" height="300px" viewBox="0 0 300 300" version="1.1" xmlns="http://www.w3.org/2000/svg" xmlns:xlink="http://www.w3.org/1999/xlink">
    <title>php</title>
    <defs>
        <radialGradient cx="30.0202069%" cy="17.5837348%" fx="30.0202069%" fy="17.5837348%" r="124.884903%" gradientTransform="translate(0.300202,0.175837),scale(0.525781,1.000000),translate(-0.300202,-0.175837)" id="radialGradient-1">
            <stop stop-color="#FFFFFF" offset="0%"></stop>
            <stop stop-color="#4C6B97" offset="50%"></stop>
            <stop stop-color="#231F20" offset="100%"></stop>
        </radialGradient>
    </defs>
    <g id="官网页面" stroke="none" stroke-width="1" fill="none" fill-rule="evenodd">
        <g id="php">
            <circle id="椭圆形备份-4" fill="#FFFFFF" cx="150" cy="150" r="150"></circle>
            <g transform="translate(20.000000, 81.000000)" fill-rule="nonzero">
                <ellipse id="Oval" fill="url(#radialGradient-1)" cx="130" cy="68.3515625" rx="130" ry="68.3515625"></ellipse>
                <ellipse id="Oval" fill="#6181B6" cx="130" cy="68.3515625" rx="124.921875" ry="63.2734375"></ellipse>
                <g id="Group" transform="translate(36.562500, 17.265625)" fill="#FFFFFF">
                    <path d="M118.726562,71.6015625 C118.726562,71.6015625 124.921875,39.7109375 124.921875,39.7109375 C126.34375,32.5 125.125,27.1171875 121.46875,23.765625 C117.914062,20.515625 111.820312,18.890625 102.882812,18.890625 L92.1171875,18.890625 L95.1640625,3.046875 C95.265625,2.4375 95.1640625,1.828125 94.7578125,1.3203125 C94.3515625,0.8125 93.84375,0.609375 93.234375,0.609375 L78.40625,0.609375 C77.390625,0.609375 76.578125,1.3203125 76.375,2.234375 L69.7734375,36.0546875 C69.1640625,32.1953125 67.7421875,28.9453125 65.3046875,26.3046875 C60.9375,21.328125 54.1328125,18.7890625 44.890625,18.7890625 L16.3515625,18.7890625 C15.3359375,18.7890625 14.5234375,19.5 14.3203125,20.4140625 L1.015625,89.0703125 C0.9140625,89.6796875 1.015625,90.2890625 1.421875,90.796875 C1.828125,91.3046875 2.3359375,91.5078125 2.9453125,91.5078125 L17.875,91.5078125 C18.890625,91.5078125 19.703125,90.796875 19.90625,89.8828125 L23.15625,73.328125 L34.2265625,73.328125 C40.015625,73.328125 44.9921875,72.71875 48.75,71.5 C52.7109375,70.1796875 56.265625,68.046875 59.4140625,65.1015625 C61.953125,62.765625 64.0859375,60.125 65.7109375,57.28125 L63.0703125,70.9921875 C62.96875,71.6015625 63.0703125,72.2109375 63.4765625,72.71875 C63.8828125,73.2265625 64.390625,73.4296875 65,73.4296875 L79.828125,73.4296875 C80.84375,73.4296875 81.65625,72.71875 81.859375,71.8046875 L89.171875,34.2265625 L99.328125,34.2265625 C103.695312,34.2265625 104.914062,35.0390625 105.320312,35.4453125 C105.625,35.75 106.234375,36.96875 105.523437,40.7265625 L99.6328125,71.09375 C99.53125,71.703125 99.6328125,72.3125 100.039062,72.8203125 C100.445312,73.328125 100.953125,73.53125 101.5625,73.53125 L116.796875,73.53125 C117.710937,73.2265625 118.523437,72.515625 118.726562,71.6015625 Z M50.0703125,45.1953125 C49.15625,49.96875 47.4296875,53.421875 44.890625,55.3515625 C42.3515625,57.28125 38.1875,58.296875 32.703125,58.296875 L26.1015625,58.296875 L30.875,33.71875 L39.40625,33.71875 C45.703125,33.71875 48.2421875,35.0390625 49.2578125,36.15625 C50.578125,37.78125 50.8828125,40.9296875 50.0703125,45.1953125 Z" id="Shape"></path>
                    <path d="M182.101562,26.3046875 C177.734375,21.328125 170.929687,18.7890625 161.6875,18.7890625 L132.945312,18.7890625 C131.929687,18.7890625 131.117187,19.5 130.914062,20.4140625 L117.609375,88.96875 C117.507812,89.578125 117.609375,90.1875 118.015625,90.6953125 C118.421875,91.203125 118.929687,91.40625 119.539062,91.40625 L134.46875,91.40625 C135.484375,91.40625 136.296875,90.6953125 136.5,89.78125 L139.75,73.2265625 L150.820312,73.2265625 C156.609375,73.2265625 161.585937,72.6171875 165.34375,71.3984375 C169.304687,70.078125 172.859375,67.9453125 176.007812,65 C178.648437,62.5625 180.882812,59.8203125 182.507812,56.875 C184.132812,53.9296875 185.351562,50.6796875 186.0625,47.125 C187.789062,38.2890625 186.46875,31.3828125 182.101562,26.3046875 Z M166.5625,45.1953125 C165.648437,49.96875 163.921875,53.421875 161.382812,55.3515625 C158.84375,57.28125 154.679687,58.296875 149.195312,58.296875 L142.59375,58.296875 L147.367187,33.71875 L155.898437,33.71875 C162.195312,33.71875 164.734375,35.0390625 165.75,36.15625 C167.171875,37.78125 167.476562,40.9296875 166.5625,45.1953125 Z" id="Shape"></path>
                </g>
                <g id="Group" transform="translate(39.609375, 19.296875)" fill="#000004">
                    <path d="M36.359375,29.65625 C42.046875,29.65625 45.8046875,30.671875 47.734375,32.8046875 C49.6640625,34.9375 50.0703125,38.4921875 49.0546875,43.5703125 C48.0390625,48.8515625 46.0078125,52.7109375 43.0625,54.9453125 C40.1171875,57.1796875 35.6484375,58.296875 29.65625,58.296875 L20.6171875,58.296875 L26.203125,29.65625 L36.359375,29.65625 Z M0,87.34375 L14.9296875,87.34375 L18.484375,69.1640625 L31.28125,69.1640625 C36.96875,69.1640625 41.5390625,68.5546875 45.1953125,67.3359375 C48.8515625,66.1171875 52.1015625,64.1875 55.1484375,61.34375 C57.6875,59.0078125 59.71875,56.46875 61.2421875,53.7265625 C62.765625,50.984375 63.8828125,47.9375 64.4921875,44.5859375 C66.1171875,36.4609375 64.8984375,30.1640625 60.9375,25.59375 C56.9765625,21.0234375 50.6796875,18.7890625 42.046875,18.7890625 L13.3046875,18.7890625 L0,87.34375 Z" id="Shape"></path>
                    <path d="M75.4609375,0.609375 L90.2890625,0.609375 L86.734375,18.7890625 L99.9375,18.7890625 C108.265625,18.7890625 113.953125,20.2109375 117.101562,23.15625 C120.25,26.1015625 121.164062,30.7734375 119.945312,37.2734375 L113.75,69.1640625 L98.71875,69.1640625 L104.609375,38.796875 C105.320312,35.34375 105.015625,33.0078125 103.898438,31.7890625 C102.78125,30.5703125 100.242188,29.859375 96.484375,29.859375 L84.6015625,29.859375 L76.984375,69.1640625 L62.15625,69.1640625 L75.4609375,0.609375 Z" id="Path"></path>
                    <path d="M152.851562,29.65625 C158.539062,29.65625 162.296875,30.671875 164.226562,32.8046875 C166.15625,34.9375 166.5625,38.4921875 165.546875,43.5703125 C164.53125,48.8515625 162.5,52.7109375 159.554688,54.9453125 C156.609375,57.1796875 152.140625,58.296875 146.148438,58.296875 L137.109375,58.296875 L142.695312,29.65625 L152.851562,29.65625 Z M116.492188,87.34375 L131.421875,87.34375 L134.976562,69.1640625 L147.773438,69.1640625 C153.460938,69.1640625 158.03125,68.5546875 161.6875,67.3359375 C165.34375,66.1171875 168.59375,64.1875 171.640625,61.34375 C174.179688,59.0078125 176.210938,56.46875 177.734375,53.7265625 C179.257812,50.984375 180.375,47.9375 180.984375,44.5859375 C182.609375,36.4609375 181.390625,30.1640625 177.429687,25.59375 C173.46875,21.0234375 167.171875,18.7890625 158.539062,18.7890625 L129.796875,18.7890625 L116.492188,87.34375 Z" id="Shape"></path>
                </g>
            </g>
        </g>
    </g>
</svg>