<?xml version="1.0" encoding="UTF-8"?>
<svg width="21px" height="20px" viewBox="0 0 21 20" version="1.1" xmlns="http://www.w3.org/2000/svg" xmlns:xlink="http://www.w3.org/1999/xlink">
    <title>React</title>
    <g id="官网" stroke="none" stroke-width="1" fill="none" fill-rule="evenodd">
        <g id="官网改版-文档-应用介绍页" transform="translate(-477.000000, -624.000000)" fill-rule="nonzero">
            <g id="编组-6" transform="translate(440.000000, 594.000000)">
                <g id="React" transform="translate(37.837838, 30.000000)">
                    <rect id="矩形" fill="#000000" opacity="0" x="0" y="0" width="20" height="20"></rect>
                    <path d="M8.4375,9.99609375 C8.4375,10.8590387 9.13705508,11.5585938 10,11.5585938 C10.8629449,11.5585938 11.5625,10.8590387 11.5625,9.99609375 C11.5625,9.13314883 10.8629449,8.43359375 10,8.43359375 C9.13705508,8.43359375 8.4375,9.13314883 8.4375,9.99609375 L8.4375,9.99609375 Z" id="路径" fill="#61DAFB"></path>
                    <path d="M18.7597656,9.99609375 C18.7597656,8.76953125 17.3183594,7.70703125 15.078125,7.06445313 C15.6425781,4.80273438 15.4433594,3.0234375 14.3808594,2.41015625 C13.3164063,1.796875 11.6757813,2.51367188 10,4.1328125 C8.32421875,2.51367188 6.68359375,1.796875 5.61914062,2.41015625 C4.55664062,3.0234375 4.35742188,4.8046875 4.921875,7.06445313 C2.68164063,7.70703125 1.24023438,8.76953125 1.24023438,9.99609375 C1.24023438,11.2226563 2.68164063,12.2851563 4.921875,12.9277344 C4.35742188,15.1875 4.55664063,16.96875 5.61914063,17.5820312 C5.88085938,17.734375 6.17773438,17.8085938 6.50195313,17.8085938 C7.27734375,17.8085938 8.21679688,17.3828125 9.23632813,16.5546875 C9.49023438,16.3476562 9.74609375,16.1132812 10,15.8671875 C10.2539063,16.1132812 10.5097656,16.3476562 10.7636719,16.5546875 C11.7832031,17.3828125 12.7207031,17.8085938 13.4980469,17.8085938 C13.8222656,17.8085938 14.1191406,17.734375 14.3808594,17.5820312 C15.4433594,16.96875 15.6425781,15.1894531 15.078125,12.9277344 C17.3183594,12.2851563 18.7597656,11.2226563 18.7597656,9.99609375 Z M14,3.0703125 C14.6894531,3.46875 14.8339844,4.91210938 14.34375,6.875 C13.6269531,6.7109375 12.8457031,6.58789062 12.0136719,6.51171875 C11.53125,5.83007812 11.0332031,5.21484375 10.5332031,4.67578125 C11.6894531,3.55664062 12.7636719,2.94921875 13.5019531,2.94921875 C13.6894531,2.94726562 13.8574219,2.98828125 14,3.0703125 L14,3.0703125 Z M12.4414062,11.40625 C12.171875,11.875 11.8867188,12.3242188 11.5957031,12.7539062 C11.0859375,12.7929688 10.5546875,12.8144531 10,12.8144531 C9.44726562,12.8144531 8.91601562,12.7929688 8.40625,12.7539062 C8.11328125,12.3242188 7.83007813,11.8730469 7.56054688,11.40625 C7.28515625,10.9277344 7.0390625,10.4570312 6.81640625,9.99609375 C7.0390625,9.53515625 7.28515625,9.06445312 7.56054688,8.5859375 C7.8359375,8.10742188 8.12109375,7.66015625 8.40820312,7.23632812 C8.91796875,7.19726562 9.44921875,7.17578125 10.0019531,7.17578125 C10.5546875,7.17578125 11.0859375,7.19726562 11.5957031,7.23632812 C11.8828125,7.65820312 12.1679687,8.10742188 12.4433594,8.58398438 C12.71875,9.0625 12.9648438,9.53320312 13.1875,9.99414062 C12.9628906,10.4570312 12.7167969,10.9277344 12.4414062,11.40625 L12.4414062,11.40625 Z M13.5898438,10.890625 C13.8085938,11.4101563 13.9882812,11.9082031 14.1367187,12.3847656 C13.6503906,12.4941406 13.1269531,12.5878906 12.5683594,12.6582031 C12.75,12.375 12.9277344,12.0859375 13.1015625,11.7871094 C13.2734375,11.4863281 13.4355469,11.1875 13.5898438,10.890625 Z M10,14.7753906 C9.65429688,14.4003906 9.31445313,13.9921875 8.98046875,13.5527344 C9.31445313,13.5683594 9.65429688,13.578125 10,13.578125 C10.3457031,13.578125 10.6855469,13.5683594 11.0195313,13.5527344 C10.6855469,13.9921875 10.3457031,14.4003906 10,14.7753906 Z M7.43164063,12.6582031 C6.87304688,12.5878906 6.3515625,12.4941406 5.86328125,12.3847656 C6.01171875,11.9082031 6.19140625,11.4101563 6.41015625,10.890625 C6.56445313,11.1875 6.72460938,11.4863281 6.8984375,11.7871094 C7.07226563,12.0839844 7.25,12.3730469 7.43164063,12.6582031 Z M6.41015625,9.1015625 C6.19140625,8.58203125 6.01171875,8.08398437 5.86328125,7.60742187 C6.34960938,7.49804687 6.87109375,7.40429688 7.4296875,7.33398437 C7.25,7.61523437 7.0703125,7.90429688 6.8984375,8.20507812 C6.7265625,8.50585938 6.56445312,8.8046875 6.41015625,9.1015625 Z M10,5.21679688 C10.3378906,5.58203125 10.6796875,5.99414063 11.0175781,6.44140625 C10.6835938,6.42578125 10.3457031,6.41601562 10,6.41601562 C9.65429688,6.41601562 9.31640625,6.42578125 8.98242188,6.44140625 C9.3203125,5.99414063 9.66210938,5.58203125 10,5.21679688 Z M13.0996094,8.20507812 C12.9257813,7.90625 12.7480469,7.6171875 12.5683594,7.33398437 C13.1269531,7.40429688 13.6484375,7.49804687 14.1347656,7.60742187 C13.9863281,8.08398437 13.8066406,8.58203125 13.5878906,9.1015625 C13.4355469,8.8046875 13.2734375,8.50585938 13.0996094,8.20507812 Z M6,3.0703125 C6.140625,2.98828125 6.30859375,2.94921875 6.5,2.94921875 C7.23828125,2.94921875 8.31054688,3.55664062 9.46679688,4.67578125 C8.96679688,5.21484375 8.46875,5.83203125 7.98632813,6.51171875 C7.15625,6.58789062 6.37304688,6.7109375 5.65625,6.875 C5.16601562,4.91015625 5.3125,3.46679688 6,3.0703125 L6,3.0703125 Z M2.00195312,9.99609375 C2.00195312,9.19921875 3.1796875,8.3515625 5.12695313,7.796875 C5.34375,8.5 5.62695313,9.23828125 5.9765625,9.99609375 C5.62890625,10.7539063 5.34375,11.4921875 5.12695313,12.1953125 C3.1796875,11.640625 2.00195312,10.7910156 2.00195312,9.99609375 Z M8.75585938,15.9628906 C7.58984375,16.9101562 6.5859375,17.2597656 6,16.9238281 C5.31054688,16.5253906 5.16601563,15.0820312 5.65625,13.1191406 C6.37304688,13.2832031 7.15429688,13.40625 7.98632813,13.4824219 C8.46289063,14.15625 8.9609375,14.7734375 9.46679688,15.3222656 C9.23046875,15.5507813 8.99414063,15.7695313 8.75585938,15.9628906 L8.75585938,15.9628906 Z M14,16.9238281 C13.4160156,17.2617188 12.4101563,16.9121094 11.2441406,15.9628906 C11.0078125,15.7695313 10.7695313,15.5507813 10.53125,15.3222656 C11.0390625,14.7734375 11.5351563,14.15625 12.0117188,13.4824219 C12.8417969,13.40625 13.625,13.2832031 14.3417969,13.1171875 C14.8339844,15.0820312 14.6875,16.5253906 14,16.9238281 L14,16.9238281 Z M14.875,12.1953125 C14.6582031,11.4921875 14.375,10.7539062 14.0253906,9.99609375 C14.3730469,9.23828125 14.6582031,8.5 14.875,7.796875 C16.8222656,8.35351562 18,9.20117187 18,9.99609375 C17.9980469,10.7910156 16.8203125,11.640625 14.875,12.1953125 Z" id="形状" fill="#61DAFB"></path>
                </g>
            </g>
        </g>
    </g>
</svg>