<?xml version="1.0" encoding="UTF-8"?>
<svg width="30px" height="30px" viewBox="0 0 30 30" version="1.1" xmlns="http://www.w3.org/2000/svg" xmlns:xlink="http://www.w3.org/1999/xlink">
    <title>spring</title>
    <g id="页面-1" stroke="none" stroke-width="1" fill="none" fill-rule="evenodd">
        <g id="spring" fill-rule="nonzero">
            <path d="M27.0918367,2.05102041 C26.6938776,3.03061224 26.1428571,3.97959184 25.5,4.83673469 C19.8061224,-1.07142857 10.4081633,-1.2244898 4.53061224,4.46938776 C-1.34693878,10.1632653 -1.53061224,19.5612245 4.16326531,25.4387755 C4.34693878,25.6530612 4.56122449,25.8367347 4.7755102,26.0204082 L5.32653061,26.5102041 C11.5714286,31.7755102 20.9387755,30.9795918 26.2040816,24.7346939 C28.2244898,22.3469388 29.4489796,19.3469388 29.6632653,16.2244898 C30.0918367,12.5204082 28.9591837,7.74489796 27.0918367,2.05102041 Z M6.91836735,26.1734694 C6.48979592,26.7244898 5.69387755,26.7857143 5.14285714,26.3571429 C4.59183673,25.9285714 4.53061224,25.1326531 4.95918367,24.5816327 C5.3877551,24.0306122 6.18367347,23.9693878 6.73469388,24.3979592 C7.25510204,24.8265306 7.34693878,25.622449 6.91836735,26.1734694 Z M27,21.7346939 C23.3571429,26.6020408 15.5204082,24.9489796 10.5306122,25.1938776 C10.5306122,25.1938776 9.64285714,25.255102 8.75510204,25.377551 C8.75510204,25.377551 9.09183673,25.2244898 9.52040816,25.0714286 C13.0408163,23.8469388 14.6938776,23.6020408 16.8367347,22.5 C20.8469388,20.4489796 24.8571429,15.9489796 25.6530612,11.2959184 C24.122449,15.7653061 19.4693878,19.622449 15.244898,21.1836735 C12.3367347,22.255102 7.10204082,23.2959184 7.10204082,23.2959184 L6.8877551,23.1734694 C3.33673469,21.4285714 3.21428571,13.7142857 9.70408163,11.2346939 C12.5510204,10.1326531 15.244898,10.744898 18.3367347,10.0102041 C21.6122449,9.24489796 25.4081633,6.79591837 26.9387755,3.58163265 C28.6530612,8.75510204 30.7346939,16.7755102 27,21.7346939 Z" id="形状" fill="#6DB33F"></path>
            <path d="M26.2040816,24.7346939 C28.2244898,22.3469388 29.4489796,19.3469388 29.6632653,16.2244898" id="路径" fill="#6DB33F"></path>
            <path d="M27,21.7346939 C23.3571429,26.6020408 15.5204082,24.9489796 10.5306122,25.1938776 C10.5306122,25.1938776 9.64285714,25.255102 8.75510204,25.377551 C8.75510204,25.377551 9.09183673,25.2244898 9.52040816,25.0714286 C13.0408163,23.8469388 14.6938776,23.6020408 16.8367347,22.5 C20.8469388,20.4489796 24.8571429,15.9489796 25.6530612,11.2959184 C24.122449,15.7653061 19.4693878,19.622449 15.244898,21.1836735 C12.3367347,22.255102 7.10204082,23.2959184 7.10204082,23.2959184 L6.8877551,23.1734694 C3.33673469,21.4285714 3.21428571,13.7142857 9.70408163,11.2346939 C12.5510204,10.1326531 15.244898,10.744898 18.3367347,10.0102041 C21.6122449,9.24489796 25.4081633,6.79591837 26.9387755,3.58163265 C28.6530612,8.75510204 30.7346939,16.7755102 27,21.7346939 Z" id="路径" fill="#FFFFFF"></path>
            <path d="M6.91836735,26.1734694 C6.48979592,26.7244898 5.69387755,26.7857143 5.14285714,26.3571429 C4.59183673,25.9285714 4.53061224,25.1326531 4.95918367,24.5816327 C5.3877551,24.0306122 6.18367347,23.9693878 6.73469388,24.3979592 C7.25510204,24.8265306 7.34693878,25.622449 6.91836735,26.1734694 Z" id="路径" fill="#FFFFFF"></path>
        </g>
    </g>
</svg>