<?xml version="1.0" encoding="UTF-8"?>
<svg width="300px" height="300px" viewBox="0 0 300 300" version="1.1" xmlns="http://www.w3.org/2000/svg" xmlns:xlink="http://www.w3.org/1999/xlink">
    <title>swift</title>
    <defs>
        <linearGradient x1="59.404026%" y1="-3.56828125%" x2="40.4896887%" y2="103.580664%" id="linearGradient-1">
            <stop stop-color="#FAAE42" offset="0%"></stop>
            <stop stop-color="#EF3E31" offset="100%"></stop>
        </linearGradient>
        <linearGradient x1="59.8404246%" y1="1.97422802%" x2="43.6223274%" y2="97.7939002%" id="linearGradient-2">
            <stop stop-color="#E39F3A" offset="0%"></stop>
            <stop stop-color="#D33929" offset="100%"></stop>
        </linearGradient>
    </defs>
    <g id="官网页面" stroke="none" stroke-width="1" fill="none" fill-rule="evenodd">
        <g id="swift">
            <circle id="椭圆形备份-2" fill="#FFFFFF" cx="150" cy="150" r="150"></circle>
            <g transform="translate(50.000000, 50.000000)" fill-rule="nonzero" id="Path">
                <path d="M44.4538033,0 C45.6256962,0 153.283589,0 155.236744,0 C160.627451,0 165.861906,0.859374996 170.940108,2.65625 C178.28397,5.3125 184.924696,10 189.924773,16.09375 C195.002976,22.1875 198.362402,29.6875 199.534295,37.5 C200.003052,40.390625 200.081178,43.28125 200.081178,46.171875 C200.081178,48.828125 200.081178,142.421875 200.081178,146.640625 C200.081178,149.140625 200.081178,151.71875 200.081178,154.21875 C200.081178,157.65625 199.924925,161.171875 199.22179,164.53125 C197.659266,172.265625 193.987335,179.53125 188.674754,185.390625 C183.440299,191.25 176.565195,195.625 169.143206,197.96875 C164.611887,199.375 159.924315,200 155.158617,200 C153.04921,200 44.1412985,200 42.5006485,199.921875 C34.5317769,199.53125 26.6410315,196.953125 20.0003052,192.5 C13.5158312,188.125 8.2032502,182.03125 4.76569772,175 C1.79690242,168.984375 0.312504769,162.265625 0.312504769,155.546875 C0.312504769,153.984375 0.312504769,46.015625 0.312504769,44.453125 C0.156252384,37.8125 1.56252384,31.25 4.45319295,25.3125 C7.81261921,18.28125 13.0470741,12.109375 19.531548,7.734375 C26.1722744,3.203125 33.9848936,0.546875 41.9537652,0.15625 C42.7350271,0 43.5944152,0 44.4538033,0 Z" fill="url(#linearGradient-1)"></path>
                <path d="M168.752575,163.59375 C168.049439,162.5 167.268177,161.40625 166.408789,160.390625 C164.455635,158.046875 162.189975,156.015625 159.689936,154.296875 C156.564889,152.1875 152.892958,150.859375 149.1429,150.703125 C146.48661,150.546875 143.83032,151.015625 141.330282,151.953125 C138.830243,152.8125 136.408332,154.0625 134.064546,155.3125 C131.330129,156.71875 128.595712,158.125 125.705043,159.296875 C122.267491,160.703125 118.673685,161.796875 115.001755,162.578125 C110.39231,163.4375 105.704738,163.75 101.095293,163.671875 C92.7357898,163.515625 84.3762878,162.265625 76.4074159,159.921875 C69.3760586,157.8125 62.657206,154.921875 56.3289845,151.25 C50.7820249,148.046875 45.6256962,144.375 40.7818723,140.234375 C36.7974365,136.796875 33.1255055,133.125 29.687953,129.21875 C27.3441672,126.484375 25.0785077,123.59375 22.9691005,120.625 C22.1097124,119.453125 21.3284504,118.203125 20.6253147,116.953125 C20.6253147,116.953125 20.6253147,116.953125 20.6253147,116.953125 C20.6253147,116.953125 20.6253147,116.953125 20.6253147,116.953125 L0,94.6874996 L0,44.296875 C0,19.84375 19.7659266,0 44.2194247,0 L83.6731514,0 L112.892347,29.6875 C112.892347,29.6875 112.892347,29.6875 112.892347,29.6875 C178.830854,74.53125 157.502403,123.984375 157.502403,123.984375 C157.502403,123.984375 176.252689,145.078125 168.752575,163.59375 Z" fill="url(#linearGradient-2)"></path>
                <path d="M113.0486,29.6875 C178.987106,74.53125 157.658656,123.984375 157.658656,123.984375 C157.658656,123.984375 176.408942,145.15625 168.830701,163.671875 C168.830701,163.671875 161.096208,150.703125 148.12726,150.703125 C135.62707,150.703125 128.283207,163.671875 103.126573,163.671875 C47.1100938,163.671875 20.6253147,116.875 20.6253147,116.875 C71.0948348,150.078125 105.548485,126.5625 105.548485,126.5625 C82.8137639,113.359375 34.4536507,50.234375 34.4536507,50.234375 C76.5636682,86.0937498 94.7670714,95.5468753 94.7670714,95.5468753 C83.9075302,86.5625004 53.4383154,42.65625 53.4383154,42.65625 C77.8136874,67.34375 126.251926,101.796875 126.251926,101.796875 C140.002136,63.671875 113.0486,29.6875 113.0486,29.6875 Z" fill="#FFFFFF"></path>
            </g>
        </g>
    </g>
</svg>