<?xml version="1.0" encoding="UTF-8"?>
<svg width="300px" height="300px" viewBox="0 0 300 300" version="1.1" xmlns="http://www.w3.org/2000/svg" xmlns:xlink="http://www.w3.org/1999/xlink">
    <title>typescript</title>
    <g id="官网页面" stroke="none" stroke-width="1" fill="none" fill-rule="evenodd">
        <g id="typescript">
            <circle id="椭圆形备份-4" fill="#FFFFFF" cx="150" cy="150" r="150"></circle>
            <g transform="translate(50.000000, 50.000000)" fill-rule="nonzero" id="Path">
                <polygon fill="#007ACC" transform="translate(100.000000, 100.000000) scale(-1, 1) rotate(-180.000000) translate(-100.000000, -100.000000) " points="0 100 0 -2.22044605e-14 100 -2.22044605e-14 200 -2.22044605e-14 200 100 200 200 100 200 0 200"></polygon>
                <path d="M114.576667,174.560049 L114.640159,166.369574 L101.624286,166.369574 L88.6084133,166.369574 L88.6084133,129.385446 L88.6084133,92.4013197 L79.4020641,92.4013197 L70.1957148,92.4013197 L70.1957148,129.385446 L70.1957148,166.369574 L57.1798418,166.369574 L44.1639687,166.369574 L44.1639687,174.40132 C44.1639687,178.845763 44.2592069,182.560049 44.386191,182.655288 C44.4814291,182.782272 60.3226989,182.845763 79.5290477,182.814018 L114.481429,182.71878 L114.576667,174.560049 Z" fill="#FFFFFF" transform="translate(79.402064, 137.611714) rotate(-180.000000) translate(-79.402064, -137.611714) "></path>
                <path d="M161.38018,183.025112 C166.459546,181.75527 170.332562,179.501302 173.888117,175.818762 C175.729387,173.850509 178.459546,170.263207 178.681768,169.406064 C178.74526,169.152095 170.046848,163.310826 164.777006,160.040984 C164.58653,159.914 163.824625,160.739397 162.967482,162.009238 C160.396054,165.75527 157.697641,167.374318 153.570657,167.660032 C147.507165,168.07273 143.602403,164.898127 143.634149,159.59654 C143.634149,158.040984 143.856371,157.120349 144.491292,155.850509 C145.824625,153.088603 148.300816,151.43781 156.078594,148.07273 C170.396054,141.914 176.523038,137.850509 180.332562,132.07273 C184.58653,125.628286 185.538911,115.342572 182.650022,107.691778 C179.475419,99.3743179 171.602403,93.7235242 160.523038,91.8505085 C157.094466,91.2473335 148.967482,91.3425718 145.284943,92.0092382 C137.253197,93.4378101 129.634149,97.406064 124.935737,102.612413 C123.094466,104.644159 119.507165,109.945746 119.729387,110.326698 C119.824625,110.453683 120.650022,110.961619 121.570657,111.501302 C122.459546,112.009238 125.824625,113.945746 128.999228,115.787016 L134.74526,119.120349 L135.951609,117.342572 C137.634149,114.771143 141.316689,111.247334 143.538911,110.07273 C149.919863,106.707651 158.681768,107.183841 162.999228,111.056858 C164.840498,112.739397 165.602403,114.485429 165.602403,117.056858 C165.602403,119.374318 165.316689,120.390191 164.11034,122.136223 C162.554784,124.358444 159.38018,126.231461 150.364308,130.136223 C140.046848,134.580667 135.602403,137.342572 131.538911,141.723524 C129.189705,144.263207 126.967482,148.326698 126.046848,151.723524 C125.284943,154.548921 125.094466,161.628286 125.697641,164.485429 C127.824625,174.453683 135.348434,181.406064 146.205577,183.469556 C149.729387,184.136223 157.919863,183.882254 161.38018,183.025112 Z" fill="#FFFFFF" transform="translate(152.014459, 137.648624) scale(-1, 1) rotate(-180.000000) translate(-152.014459, -137.648624) "></path>
            </g>
        </g>
    </g>
</svg>