<?xml version="1.0" encoding="UTF-8"?>
<svg width="300px" height="300px" viewBox="0 0 300 300" version="1.1" xmlns="http://www.w3.org/2000/svg" xmlns:xlink="http://www.w3.org/1999/xlink">
    <title>go</title>
    <g id="官网页面" stroke="none" stroke-width="1" fill="none" fill-rule="evenodd">
        <g id="go">
            <circle id="椭圆形备份-8" fill="#FFFFFF" cx="150" cy="150" r="150"></circle>
            <g transform="translate(62.000000, 30.000000)" fill-rule="nonzero">
                <path d="M2.53745136,129.768952 C2.88035019,136.844761 9.94406616,133.547297 13.0987354,131.348987 C16.1162452,129.219374 17.0077821,131.005501 17.2821011,126.883671 C17.4878405,124.135784 17.7621595,121.456595 17.625,118.708707 C13.0301557,118.296525 8.09241245,119.395679 4.32052529,122.143567 C2.33171206,123.517509 -1.2344358,128.051523 2.53745136,129.768952" id="Path" fill="#F6D2A2"></path>
                <path d="M143.331712,216.739568 C148.749514,220.105729 158.69358,230.272911 150.532587,235.219106 C142.714494,242.363612 138.325389,227.318932 131.467413,225.258017 C134.416342,221.204884 138.119649,217.495237 143.331712,216.739568 Z" id="Path" fill="#F6D2A2"></path>
                <path d="M46.3599222,228.211995 C39.982004,229.173756 36.4158561,234.944318 31.0666342,237.898296 C26.0603113,240.852275 24.1400778,236.936536 23.7285992,236.11217 C22.9742218,235.768684 23.0428015,236.455656 21.8083657,235.219106 C17.1449416,227.86851 26.6089493,222.51013 31.5466927,218.86918 C38.4046693,217.495237 42.7251945,223.47189 46.3599222,228.211995 Z" id="Path" fill="#F6D2A2"></path>
                <path d="M173.438229,128.875889 C173.095331,135.951698 166.031615,132.654233 162.876945,130.455923 C159.859435,128.326312 158.967898,130.112438 158.69358,125.990607 C158.48784,123.242722 158.213522,120.563532 158.350681,117.815645 C162.945525,117.403462 167.883269,118.502617 171.655156,121.250503 C173.575389,122.624446 177.210117,127.15846 173.438229,128.875889" id="Path" fill="#F6D2A2"></path>
                <path d="M154.715953,42.5922447 C179.19893,33.9364014 160.065175,0.343485845 138.736868,15.1820743 C124.746595,3.16006977 105.475681,0.961760362 85.2446496,0.961760362 C65.4250973,2.54179524 46.5656615,6.1827452 33.3983463,17.7238696 C12.1386187,3.9844358 -7.47519452,36.9590769 17.4878405,45.2714344 C10.4927043,72.4755131 18.4479572,100.229169 17.3506809,127.914128 C16.3219844,152.782504 9.80690663,186.10063 23.5914398,208.427211 C35.3185798,227.525023 60.5559338,234.326044 81.3356029,235.081712 C107.875973,236.043473 140.039883,229.517242 152.93288,203.755803 C165.277238,179.230913 161.848249,148.660673 160.270914,122.212264 C158.69358,95.4890644 161.64251,68.3536831 154.715953,42.5922447 Z" id="Path" fill="#69D7E2"></path>
                <path d="M175.289883,124.685362 C174.604086,123.242722 173.30107,121.593989 172.066634,120.700926 C168.911964,118.433919 164.865758,117.19737 160.682393,117.059976 C160.545233,112.800751 160.408073,108.129344 160.408073,102.221388 L160.408073,96.8630081 C160.339493,79.9635048 160.133755,72.5442103 159.173638,63.2700925 C158.419261,55.9881927 157.253405,49.2558701 155.60749,42.9357306 C161.162452,40.8061183 164.797179,37.3025628 166.237354,32.7685496 C167.608949,28.5780223 166.923152,23.8379176 164.591439,19.6473904 C162.191148,15.5255603 158.350681,12.4341876 153.892996,11.1976386 C149.092413,9.89239238 143.880351,10.8541527 138.874027,14.220314 C134.416342,10.4419697 129.27286,7.55668855 123.51216,5.35837918 C113.293774,1.58003488 101.429475,0.137394338 85.3132294,0.137394338 L85.3132294,0.824366028 L85.2446496,0.137394338 C68.0311284,1.51133772 55.2752918,4.1905273 44.7140077,9.34281497 C40.4620623,11.40373 36.6901751,13.8768281 33.3983463,16.7621093 C28.3234435,13.6020395 23.0428015,12.8463706 18.1736381,14.3577083 C13.6473735,15.7316516 9.73832691,18.9604186 7.40661482,23.1509459 C5.07490273,27.3414732 4.5262646,32.150275 6.10359922,36.2721052 C7.68093382,40.3939353 11.3156615,43.6227023 16.7334631,45.6149201 C15.0189689,52.5533342 14.1274319,59.9039313 13.9902724,68.0101973 C13.8531128,75.9103718 14.1960117,82.230511 15.4304475,96.5195222 C16.3219844,107.167583 16.6648833,112.045083 16.8020428,117.953039 C12.1386187,117.746948 7.47519452,118.983497 3.97762646,121.525292 C2.74319066,122.418355 1.37159533,123.99839 0.754377429,125.509728 C-0.137159533,127.433248 0.2057393,129.150677 1.98881323,130.181136 C2.26313229,133.4786 4.11478599,134.989937 6.92655643,134.715148 C8.98394939,134.509057 11.452821,133.409903 13.5787938,131.898564 C14.0588522,131.555078 14.5389105,131.28029 15.0189689,131.074199 C15.2247082,131.005501 15.3618677,130.936804 15.567607,130.868107 C15.567607,130.868107 15.9790856,130.730712 16.1162452,130.662015 C16.3219844,130.593318 16.5277237,130.524621 16.6648833,130.387227 C16.5277237,133.615994 16.2534047,136.982155 15.6361867,144.676238 C14.9503891,153.332081 14.6074902,158.072185 14.4703307,163.361868 C13.8531128,183.009258 16.1848249,197.298269 23.1799611,208.633302 C25.3745136,212.205554 28.0491245,215.365625 31.2037938,218.250906 C30.5865758,218.663089 27.9805447,220.58661 27.1575876,221.204884 C24.2772373,223.403193 22.2884242,225.258017 21.1225681,227.318932 C19.6138132,229.998121 19.6138132,232.677311 21.3283073,235.493895 L21.3968872,235.562592 L21.4654669,235.631289 C22.2198443,236.386958 22.6313229,236.59305 23.1799611,236.59305 L23.2485409,236.59305 L23.3857004,236.59305 C23.4542802,236.730444 23.5228599,236.799142 23.5914397,236.936536 C23.797179,237.280021 24.0029182,237.554811 24.2086576,237.829598 C25.9231518,239.821817 28.3234435,240.302697 31.5466927,238.379176 C33.2611867,237.486113 34.4956226,236.455656 37.1016537,234.257347 C37.1702335,234.188649 37.1702335,234.188649 37.2388132,234.119952 C41.422179,230.547698 43.479572,229.242453 46.5656615,228.761573 L47.6629377,228.555481 C48.0744164,228.761573 48.4858949,228.898967 48.9659533,229.105058 C58.7042802,233.020797 70.0199418,235.150409 81.4727625,235.562592 C96.2859919,236.11217 110.550584,234.257347 122.620623,229.860727 C125.843872,228.692875 128.861381,227.318932 131.741731,225.807594 C133.524805,226.494566 135.033561,227.937206 137.91391,231.303368 C138.05107,231.440762 138.05107,231.440762 138.119649,231.578156 C138.256809,231.715551 138.256809,231.784248 138.325389,231.852945 C138.462548,232.059037 138.668288,232.196431 138.805447,232.402523 C141.06858,235.081712 142.577335,236.386958 144.291829,237.142627 C146.55496,238.104387 148.749514,237.623508 151.012646,235.562592 C154.990273,233.089494 155.264591,229.242453 152.658561,224.845834 C150.806906,221.754461 147.583657,218.525694 144.566148,216.46478 C148.132296,212.961223 151.218385,208.770697 153.618677,204.030592 C160.202335,190.840735 162.739786,175.45257 162.602627,155.667785 C162.534047,148.660673 162.259727,142.546626 161.505351,130.868107 L161.505351,130.524621 C161.848249,130.662015 162.191148,130.868107 162.534047,131.142895 C164.660019,132.585536 167.128891,133.753388 169.186284,133.959479 C171.998055,134.234268 173.849708,132.722931 174.124027,129.425467 C175.838522,128.326312 176.18142,126.608882 175.289883,124.685362 Z M153.481518,12.6402791 C157.596304,13.7394338 161.162452,16.6247149 163.357004,20.4717563 C165.551557,24.3187978 166.168774,28.6467194 164.934338,32.4937609 C163.631323,36.5468939 160.339493,39.7756608 155.196011,41.6991816 C154.167315,37.9895344 152.93288,34.3485845 151.561284,30.8450288 C153.550098,29.1275996 154.510214,26.9979874 152.93288,23.975312 C151.355544,20.9526366 148.612354,20.6091507 145.800584,21.5022139 C144.01751,19.1665102 142.028696,17.105595 139.971304,15.1820743 C144.497569,12.2967933 149.160992,11.4724272 153.481518,12.6402791 Z M7.26945528,35.8599222 C5.82928015,32.150275 6.30933852,27.7536563 8.50389107,23.9066148 C10.6984435,20.0595733 14.2645914,17.0368979 18.5165369,15.8003488 C22.905642,14.4951026 27.637646,15.1133772 32.30107,17.861264 C29.6264591,20.2656648 27.2261673,23.0135516 25.1687743,26.036227 C21.6026265,24.1814034 17.9678989,23.8379176 15.9105058,27.616262 C13.7845331,31.6693949 16.2534047,34.2111901 19.7509727,36.1347108 C19.2709144,37.3025628 18.7908561,38.5391118 18.3793774,39.7756608 C17.8993191,41.2869985 17.4192607,42.8670334 17.0077821,44.4470683 C12.0014591,42.5235476 8.70963037,39.5695693 7.26945528,35.8599222 Z M15.567607,129.494164 C15.4990273,129.494164 15.0875486,129.631558 15.0875486,129.700255 C14.8818094,129.768953 14.67607,129.837649 14.4703307,129.975043 C13.9216927,130.181136 13.3730544,130.524621 12.8244164,130.936804 C10.9041829,132.310747 8.57247084,133.341204 6.78939689,133.4786 C4.73200389,133.684691 3.56614786,132.791628 3.36040856,130.31853 C4.80058366,129.837649 5.41780156,129.494164 5.96643968,128.669797 L4.86916342,127.845431 C4.45768482,128.395009 4.04620623,128.6011 2.81177043,129.013283 C2.74319066,129.013283 2.74319066,129.013283 2.6746109,129.081981 C1.57733463,128.463706 1.37159533,127.501945 1.98881323,126.128003 C2.53745136,124.891453 3.77188716,123.448812 4.80058366,122.693143 C8.09241245,120.288742 12.4815175,119.120891 16.8706226,119.395679 C16.8706226,121.113109 16.9392023,122.830537 16.8706226,124.47927 C16.8706226,124.685362 16.8706226,124.822756 16.8020428,125.028847 C16.7334631,125.990607 16.7334631,126.402791 16.6648833,126.883671 C16.4591439,128.875889 16.3219844,129.150677 15.567607,129.494164 Z M36.2786964,233.158191 C36.2101167,233.226888 36.2101167,233.226888 36.1415369,233.295586 C33.6040856,235.493895 32.3696497,236.386957 30.7923152,237.280021 C28.186284,238.860056 26.4032102,238.51657 25.1687743,237.005233 C24.9630351,236.799142 24.8258755,236.524353 24.688716,236.318261 C24.6201362,236.249564 24.5515565,236.11217 24.4829767,236.043472 C24.4829767,236.043472 24.4829767,236.043472 24.4829767,235.974775 C24.6201362,234.738226 25.1001945,233.845162 26.3346304,231.921642 C26.4032102,231.852945 26.4032102,231.852945 26.4032102,231.784248 C27.1575876,230.685093 27.5004864,230.066819 27.8433852,229.31115 L26.6089493,228.761572 C26.3346304,229.379847 25.9917315,229.929424 25.3059338,231.02858 C25.237354,231.097277 25.237354,231.097277 25.237354,231.165973 C24.0029182,232.9521 23.4542802,234.051254 23.1799611,235.287803 L23.1113813,235.287803 C23.1113813,235.287803 23.1113813,235.287803 23.0428015,235.287803 L22.905642,235.287803 C22.7684825,235.219106 22.5627431,235.081712 22.2884242,234.806923 C19.6138132,230.547698 21.739786,226.906749 27.7748055,222.372736 C28.5291829,221.823158 31.0666342,220.037032 31.7524319,219.487454 C31.8895914,219.487454 32.026751,219.418757 32.1639105,219.350061 C35.8672179,222.51013 40.1877431,225.258017 44.9883269,227.525023 C44.9883269,227.59372 45.0569066,227.662417 45.1254864,227.731116 C42.313716,228.418087 40.1191634,229.860727 36.2786964,233.158191 Z M151.424124,225.6702 C153.550098,229.242453 153.481518,232.127734 150.806906,234.119952 C150.601167,233.707769 150.464008,233.226888 150.189689,232.539917 C150.189689,232.47122 150.189689,232.47122 150.121109,232.402523 C149.160992,229.79203 148.543774,228.692875 147.377918,227.456326 L146.417802,228.418087 C147.446497,229.379847 147.926557,230.410305 148.886673,232.814706 C148.886673,232.883403 148.886673,232.883403 148.955253,232.9521 C149.298152,233.845162 149.503891,234.394741 149.709631,234.87562 C147.926557,236.386957 146.349222,236.661747 144.703307,235.906078 C143.263132,235.287803 141.891537,233.982557 139.696985,231.509459 C139.559825,231.372065 139.422665,231.165973 139.285507,230.959883 C139.216927,230.891184 139.148347,230.822487 139.079767,230.685093 C138.942607,230.547698 138.942607,230.547698 138.874027,230.410305 C136.336576,227.456326 134.827821,225.876292 133.181906,224.983228 C137.022373,222.784919 140.451362,220.31182 143.537452,217.426539 C146.417802,219.556152 149.641051,222.716221 151.424124,225.6702 Z M152.384242,203.412317 C146.486381,215.296927 136.062257,223.677982 122.071985,228.761572 C110.139105,233.089494 96.0116728,234.87562 81.4041827,234.326044 C56.2354086,233.43298 34.4270428,224.639742 24.2086576,208.015028 C17.3506809,196.954783 15.0875486,182.871863 15.7047665,163.499262 C15.9105058,158.20958 16.1848249,153.469476 16.8706226,144.813633 C17.625,135.058634 17.8307393,132.24205 18.0364786,127.845431 C18.1736381,124.685362 18.1736381,121.456595 18.1050584,118.021736 C17.9678989,111.976386 17.625,107.167583 16.7334631,96.3821278 C15.4990273,82.0931166 15.1561284,75.8416745 15.293288,68.0101973 C15.4990273,57.7056219 16.8706226,48.6375956 19.7509727,40.0504495 C24.4143968,26.1049242 32.9868677,16.6934121 45.3312257,10.579364 C55.6867704,5.49577352 68.2368677,2.8852811 85.3132294,1.51133772 C101.292315,1.51133772 112.950876,2.95397827 123.032102,6.66362539 C135.10214,11.1289414 144.08609,18.9604186 150.258269,30.9824232 C154.235895,40.7374212 156.567607,51.248088 157.802043,63.3387897 C158.76216,72.5442103 158.967898,79.9635048 159.036478,96.7943109 L159.036478,102.152691 C159.105058,110.465047 159.242218,116.304307 159.585117,122.143567 C159.722276,124.410573 159.790856,125.372333 160.133755,130.799409 C160.888132,142.477928 161.162452,148.523279 161.231032,155.53039 C161.368191,175.246477 158.899319,190.428552 152.384242,203.412317 Z M173.369649,128.188917 C173.30107,128.188917 173.23249,128.12022 173.16391,128.12022 C171.929475,127.708037 171.517996,127.433248 171.106518,126.952368 L170.009242,127.776734 C170.62646,128.6011 171.243677,128.944586 172.615273,129.425467 C172.340953,131.898564 171.175098,132.791628 169.186284,132.585536 C167.40321,132.448141 165.071498,131.348987 163.151265,130.04374 C162.602627,129.631558 162.053989,129.356769 161.505351,129.081981 C161.436771,129.081981 161.368191,129.013283 161.299611,129.013283 C161.025292,125.234939 161.025292,124.273178 160.888133,122.280961 C160.819553,121.044412 160.750973,119.807863 160.682393,118.571314 C164.52286,118.640011 168.294747,119.807863 171.175098,121.937475 C172.203794,122.693143 173.438229,124.135784 173.986868,125.372333 C174.672665,126.540185 174.535506,127.570642 173.369649,128.188917 Z" id="Shape" fill="#000000"></path>
                <g id="Group" transform="translate(74.999129, 66.862769)">
                    <path d="M20.6425098,4.94619617 C20.7110895,8.44975179 21.3968872,12.2967933 20.7796693,16.0064404 C19.8195525,17.7925668 18.0364786,17.9986582 16.4591439,18.6856299 C14.2645914,18.3421441 12.4129377,16.8995036 11.5214008,14.8385885 C10.9727627,10.6480612 11.6585603,6.66362539 11.8642996,2.47309808 C11.8642996,2.33570375 14.4703307,2.54179524 16.8020428,3.22876694 C18.7908561,3.84704146 20.6425098,4.87749899 20.6425098,4.94619617 Z" id="Path" fill="#FFFFFF"></path>
                    <path d="M1.2344358,5.22098484 C-0.685797665,12.5028847 3.77188716,24.387495 11.1099222,14.632497 C10.561284,10.5106668 11.1785019,6.52623105 11.3842413,2.47309808 C11.452821,2.12961223 1.30301557,4.74010465 1.2344358,5.22098484 Z" id="Path" fill="#FFFFFF"></path>
                    <path d="M21.4654669,8.1749631 C21.3283073,6.11404804 21.2597276,5.289682 21.2597276,4.25922447 L21.2597276,3.77834429 L20.7796693,3.64094995 L12.1386187,0.961760362 L12.1386187,0.480880183 L11.2470817,0.686971689 L11.1785019,0.686971689 L11.1785019,0.755668855 L1.4401751,3.22876694 L1.09727627,3.29746411 L0.960116728,3.64094995 C-0.548638133,7.28189993 -0.2057393,12.7776734 1.71449416,16.1438347 C3.90904669,19.9908761 7.47519452,20.0595733 11.1099222,15.6629544 C12.1386187,17.6551724 14.0588522,19.0291158 16.2534047,19.3726016 L16.4591439,19.3726016 L16.6648833,19.3039044 C16.9392023,19.1665102 17.2135214,19.097813 17.6935798,18.8917214 C17.7621595,18.8917214 17.7621595,18.8917214 17.8307393,18.8230243 C19.8195525,18.1360526 20.6425098,17.5864752 21.3283073,16.281229 L21.3968872,16.2125318 L21.3968872,16.0751376 C21.6026265,14.8385885 21.6712062,13.5333423 21.6712062,12.0907017 C21.6712062,11.0602442 21.6026265,10.0984838 21.4654669,8.1749631 Z M10.4927043,5.63316786 C10.4241245,6.86971689 10.3555447,7.3505971 10.2869649,8.03756876 C10.1498055,10.579364 10.1498055,12.5028847 10.3555447,14.4264054 C7.13229574,18.5482356 4.59484435,18.5482356 2.88035019,15.4568631 C1.2344358,12.5715819 0.891536963,7.6940829 2.12597276,4.46531598 L10.7670233,2.26700657 C10.6984435,3.16006977 10.6298638,4.05313297 10.4927043,5.63316786 Z M20.0938716,15.8003488 C19.6138132,16.6247149 18.9965953,17.0368979 17.3506809,17.5864752 C17.2821011,17.5864752 17.2821011,17.5864752 17.2135214,17.6551724 C16.8020428,17.7925668 16.5277237,17.9299611 16.3219844,17.9986582 C14.4703307,17.6551724 12.892996,16.4186234 12.1386187,14.7011941 C11.9328794,12.8463706 11.9328794,10.9228499 12.0700389,8.38105462 C12.1386187,7.6940829 12.1386187,7.21320276 12.2757782,5.9766537 C12.4129377,4.39661881 12.4815175,3.43485845 12.4815175,2.54179524 L19.956712,4.80880183 C19.956712,5.70186502 20.0252918,6.52623105 20.1624514,8.31235745 C20.2996109,10.167181 20.3681906,11.1289414 20.3681906,12.2280961 C20.3681906,13.5333423 20.2996109,14.7011941 20.0938716,15.8003488 Z" id="Shape" fill="#000000"></path>
                </g>
                <g id="Group" transform="translate(33.374251, 15.155561)">
                    <path d="M1.57733463,26.7231987 C7.88667314,51.3167852 47.1828794,44.9966456 45.6741245,20.334362 C43.8910506,-9.20542062 -4.45768482,-3.50355562 1.57733463,26.7231987" id="Path" fill="#FFFFFF"></path>
                    <path d="M46.3599222,20.2656648 C45.9484435,13.1211593 42.7937743,7.55668855 37.581712,4.05313297 C32.918288,0.893063193 26.746109,-0.343485845 20.6425098,0.412183013 C14.5389105,1.23654904 8.91536962,3.9844358 5.21206226,8.31235745 C1.09727627,13.1211593 -0.480058366,19.4412988 0.960116728,26.7231987 L1.57733463,26.5858043 L0.960116728,26.7231987 C7.40661482,52.0037569 47.8686771,45.8897088 46.3599222,20.2656648 Z M2.19455253,26.5858043 C0.822957199,19.6473904 2.33171206,13.7394338 6.17217898,9.27411779 C9.66974709,5.22098484 14.9503891,2.54179524 20.7796693,1.7861264 C26.6089493,1.03045753 32.4382296,2.19830941 36.8273347,5.22098484 C41.6964981,8.51844896 44.645428,13.6707367 45.0569066,20.4717563 C46.4970817,44.4470683 8.29815176,50.2176305 2.19455253,26.5858043 Z" id="Shape" fill="#000000"></path>
                    <ellipse id="Oval" fill="#000000" cx="12.4129377" cy="22.6700657" rx="6.65223735" ry="7.21320276"></ellipse>
                    <ellipse id="Oval" fill="#FFFFFF" cx="15.4304475" cy="24.3187978" rx="1.57733463" ry="1.85482356"></ellipse>
                </g>
                <g id="Group" transform="translate(89.238810, 12.481050)">
                    <path d="M0.822957199,24.799678 C5.69212062,53.0342144 51.7777237,45.5462229 45.1254864,17.105595 C39.1590467,-8.44975179 -0.822957199,-1.37394338 0.822957199,24.799678" id="Path" fill="#FFFFFF"></path>
                    <path d="M45.7427043,16.9682007 C39.6391051,-9.34281497 -1.50875486,-2.12961223 0.137159533,24.8683752 L0.137159533,24.9370723 C2.40029183,38.2643231 14.2645914,45.0653428 27.3633269,42.8670334 C33.3297665,41.8365758 38.6789883,38.9512947 42.1765565,34.6920703 C46.0170233,29.9519657 47.3886187,23.8379176 45.7427043,16.9682007 Z M41.1478599,33.8677043 C37.8560311,37.8521401 32.8497082,40.6000268 27.1575876,41.5617872 C14.7446498,43.6227023 3.63472763,37.2338656 1.4401751,24.7309808 C-0.0685797665,-0.686971689 38.7475681,-7.48799138 44.5082685,17.2429894 C46.0170233,23.7692204 44.7825876,29.4710855 41.1478599,33.8677043 Z" id="Shape" fill="#000000"></path>
                    <ellipse id="Oval" fill="#000000" cx="12.1386187" cy="23.5631289" rx="6.51507782" ry="7.21320276"></ellipse>
                    <ellipse id="Oval" fill="#FFFFFF" cx="15.1561284" cy="25.211861" rx="1.50875486" ry="1.85482356"></ellipse>
                </g>
                <g id="Group" transform="translate(68.528461, 48.586946)">
                    <path d="M9.12110893,8.65584331 C3.70330739,9.13672344 -0.685797665,15.5255603 2.12597276,20.6091507 C5.82928015,27.3414732 14.1274319,19.9908761 19.2709144,20.6778479 C25.237354,20.8152422 30.1065175,26.9979874 34.8385214,21.7770025 C40.1191634,16.0064404 32.5753891,10.3732725 26.6089493,7.90017442 L9.12110893,8.65584331 Z" id="Path" fill="#F6D2A2"></path>
                    <path d="M35.5243191,13.2585536 C33.6726653,10.9228499 30.4494164,8.79323766 26.9518482,7.3505971 L26.8146887,7.28189993 L26.6775292,7.28189993 L9.12110893,7.96887158 C3.01750973,8.51844896 -1.37159533,15.5942573 1.57733463,20.9526366 C2.74319066,23.0135516 4.32052529,24.0440091 6.44649805,24.1814034 C8.02383268,24.2501006 9.66974709,23.9066148 12.2071985,23.0135516 C12.4129377,22.9448544 12.6872569,22.8761573 13.0301557,22.7387629 C16.4591439,21.5709111 17.8307393,21.2274252 19.2023347,21.4335167 L19.2709144,21.4335167 C20.9168288,21.4335167 22.2884242,21.9143969 24.8944553,22.9448544 C27.7748055,24.1127063 28.6663424,24.4561921 30.1065175,24.5935865 C32.0953307,24.7309808 33.8098249,24.0440091 35.3871595,22.3265799 C38.0617704,19.3726016 37.9246109,16.2125318 35.5243191,13.2585536 Z M34.3584631,21.3648195 C33.0554475,22.8074601 31.7524319,23.2883403 30.1750973,23.2196431 C28.9406615,23.1509459 28.1177043,22.8074601 25.3745136,21.7083053 C22.6313229,20.5404535 21.1225681,20.1282705 19.3394942,20.0595733 C17.625,19.8534818 16.1848249,20.1969677 12.5500973,21.4335167 C12.2071985,21.5709111 11.9328794,21.6396083 11.7271401,21.7083053 C6.72081712,23.4257347 4.32052529,23.2883403 2.6746109,20.2656648 C0.2057393,15.8003488 3.97762646,9.754998 9.12110893,9.27411779 L26.4717898,8.58714614 C29.7636187,9.96108956 32.7125486,11.9533073 34.4270428,14.0829197 C36.4844358,16.5560177 36.5530156,19.0291158 34.3584631,21.3648195 Z" id="Shape" fill="#231F20"></path>
                    <g id="Path" transform="translate(8.229572, 0.000000)" fill="#000000">
                        <path d="M19.7509727,5.70186503 C17.625,-2.12961223 -0.2057393,-0.961760363 0.2057393,8.38105463 C1.09727627,15.3194687 21.8083658,13.4646451 19.7509727,5.70186503 Z" id="路径"></path>
                    </g>
                </g>
            </g>
        </g>
    </g>
</svg>