<?xml version="1.0" encoding="UTF-8"?>
<svg width="54px" height="54px" viewBox="0 0 54 54" version="1.1" xmlns="http://www.w3.org/2000/svg" xmlns:xlink="http://www.w3.org/1999/xlink">
    <title>语言样例</title>
    <defs>
        <radialGradient cx="82.0631677%" cy="-2.99296061%" fx="82.0631677%" fy="-2.99296061%" r="284.868247%" gradientTransform="translate(0.820632,-0.029930),scale(0.875000,1.000000),rotate(-64.094441),scale(1.000000,0.851572),translate(-0.820632,0.029930)" id="radialGradient-1">
            <stop stop-color="#08102C" stop-opacity="0.603680377" offset="0%"></stop>
            <stop stop-color="#0A224F" offset="100%"></stop>
        </radialGradient>
    </defs>
    <g id="官网" stroke="none" stroke-width="1" fill="none" fill-rule="evenodd">
        <g id="官网改版-文档首页" transform="translate(-900.000000, -644.000000)" fill-rule="nonzero">
            <g id="编组-6" transform="translate(60.000000, 500.000000)">
                <g id="编组-2备份-2" transform="translate(820.000000, 122.000000)">
                    <g id="语言样例" transform="translate(20.000000, 22.000000)">
                        <rect id="矩形" fill="#000000" opacity="0" x="0" y="0" width="54" height="54"></rect>
                        <path d="M45,6.00000001 C46.5912989,6.00000001 48.1174224,6.63214106 49.2426407,7.75735933 C50.367859,8.8825776 51,10.4087011 51,12 L51,12 L51,42 C51,43.5912989 50.367859,45.1174224 49.2426407,46.2426407 C48.1174224,47.3678589 46.5912989,48 45,48 L45,48 L9.00000001,48 C5.68629151,48 3.00000001,45.3137085 3.00000001,42 L3.00000001,42 L3.00000001,12 C3.00000001,8.68629152 5.68629151,6.00000001 9.00000001,6.00000001 L9.00000001,6.00000001 Z M48,22.264 L6.00000001,22.264 L6.00000001,42 C6.00000001,43.5976809 7.24891998,44.9036609 8.82372722,44.9949073 L9.00000001,45 L45,45 C46.6568542,45 48,43.6568542 48,42 L48,42 L48,22.264 Z M27.045,28.22 C27.3106544,27.4439972 28.1503442,27.025266 28.93,27.28 C29.7079999,27.5435864 30.1292748,28.3839073 29.875,29.165 L29.875,29.165 L26.62,39.095 C26.3741331,39.6901304 25.8080141,40.0908882 25.165,40.125 C25.0169268,40.1315263 24.8694533,40.1023746 24.735,40.04 C23.9589972,39.7743456 23.540266,38.9346558 23.795,38.155 L23.795,38.155 Z M16.945,30.645 C17.7240098,30.3764886 18.5790775,30.7475966 18.915,31.5 C19.26,32.245 18.83,33.105 17.975,33.515 L17.975,33.515 L14.805,34.8 L17.975,36.255 C18.7297535,36.5881709 19.073771,37.4683195 18.745,38.225 C18.4890924,38.7482494 17.9574763,39.08 17.375,39.08 C17.1657157,39.0636257 16.9617688,39.0058408 16.775,38.91 L16.775,38.91 L10.44,36 C9.90769557,35.7583932 9.56424304,35.2295544 9.56,34.645 C9.59419723,34.0490661 9.95628712,33.5213393 10.5,33.275 L10.5,33.275 Z M35.095,31.475 C35.4028988,30.6948978 36.2848978,30.3121013 37.065,30.62 L37.065,30.62 L43.5,33.275 C44.0249421,33.4832977 44.3656406,33.9953418 44.355,34.56 C44.3550244,35.1424762 44.0232493,35.6740924 43.5,35.93 L43.5,35.93 L37.15,38.83 C36.9804463,38.9639693 36.7646284,39.0251177 36.55,39 C35.9697663,39.0019009 35.4387254,38.674361 35.18,38.155 C34.8512291,37.3983195 35.1952465,36.5181709 35.95,36.185 L35.95,36.185 L39.12,34.73 L35.95,33.445 C35.1698978,33.1371012 34.7871013,32.2551022 35.095,31.475 Z M45,9.00000002 L9.00000001,9.00000002 C7.34314576,9.00000002 6.00000001,10.3431458 6.00000001,12 L6.00000001,12 L6.00000001,19.264 L48,19.264 L48,12 C48,10.4023191 46.75108,9.09633914 45.1762728,9.00509271 L45,9.00000002 Z M17.725,12.4764428 C18.4211524,12.074519 19.2788476,12.074519 19.975,12.4764428 C20.6711525,12.8783666 21.1,13.6211524 21.1,14.425 C21.1,15.6676407 20.0926407,16.6749999 18.85,16.6749999 C17.6073593,16.6749999 16.6,15.6676407 16.6,14.425 C16.6,13.6211524 17.0288475,12.8783666 17.725,12.4764428 Z M25.835,12.175 C27.0776407,12.175 28.085,13.1823593 28.085,14.425 C28.085,15.6676407 27.0776407,16.675 25.835,16.675 C24.5923593,16.675 23.585,15.6676407 23.585,14.425 C23.585,13.1823593 24.5923593,12.175 25.835,12.175 Z M10.7399006,12.4761558 C11.4361035,12.0741555 12.2938965,12.0741555 12.9900994,12.4761558 C13.6863024,12.8781561 14.1151231,13.6210704 14.115,14.425 C14.1151231,15.2289296 13.6863024,15.9718439 12.9900994,16.3738442 C12.2938965,16.7758446 11.4361035,16.7758446 10.7399006,16.3738442 C10.0436976,15.9718439 9.61487693,15.2289296 9.61499998,14.425 C9.61487693,13.6210704 10.0436976,12.8781561 10.7399006,12.4761558 Z" id="形状结合" fill="url(#radialGradient-1)"></path>
                    </g>
                </g>
            </g>
        </g>
    </g>
</svg>