<?xml version="1.0" encoding="UTF-8"?>
<svg width="55px" height="54px" viewBox="0 0 55 54" version="1.1" xmlns="http://www.w3.org/2000/svg" xmlns:xlink="http://www.w3.org/1999/xlink">
    <title>云数据库文档</title>
    <defs>
        <radialGradient cx="82.0631677%" cy="-2.99296061%" fx="82.0631677%" fy="-2.99296061%" r="279.446348%" gradientTransform="translate(0.820632,-0.029930),scale(1.000000,0.995683),rotate(-67.064477),scale(1.000000,0.851572),translate(-0.820632,0.029930)" id="radialGradient-1">
            <stop stop-color="#08102C" stop-opacity="0.603680377" offset="0%"></stop>
            <stop stop-color="#0A224F" offset="100%"></stop>
        </radialGradient>
    </defs>
    <g id="官网" stroke="none" stroke-width="1" fill="none" fill-rule="evenodd">
        <g id="官网改版-文档首页" transform="translate(-80.000000, -644.000000)" fill-rule="nonzero">
            <g id="编组-6" transform="translate(60.000000, 500.000000)">
                <g id="编组-2" transform="translate(0.000000, 122.000000)">
                    <g id="云数据库文档" transform="translate(20.000000, 22.000000)">
                        <rect id="矩形" fill="#000000" opacity="0" x="0" y="0" width="54" height="54"></rect>
                        <path d="M38.0025,1.2825 C42.4575,1.2825 46.1025,4.9275 46.1025,9.45 L46.1025,9.45 L46.1025,24.3675 C46.1025,25.38 45.2925,26.19 44.28,26.19 C43.2675,26.19 42.4575,25.38 42.4575,24.3675 L42.4575,24.3675 L42.4575,9.45 C42.4575,7.02 40.4325,4.995 38.0025,4.995 L38.0025,4.995 L12.96,4.995 C10.53,4.995 8.505,7.02 8.505,9.45 L8.505,9.45 L8.505,43.4025 C8.505,45.8325 10.53,47.8575 12.96,47.8575 L12.96,47.8575 L23.6925,47.8575 C24.705,47.8575 25.515,48.6675 25.515,49.68 C25.515,50.6925 24.705,51.5025 23.6925,51.5025 L23.6925,51.5025 L12.42,51.5025 C10.4625,51.3675 8.64,50.5575 7.2225,49.14 C5.67,47.5875 4.7925,45.5625 4.7925,43.4025 L4.7925,43.4025 L4.7925,9.45 C4.7925,4.9275 8.4375,1.2825 12.96,1.2825 L12.96,1.2825 Z M43.9979014,28.761752 C47.8839189,28.761752 51.0454791,31.9233421 51.0454791,35.8097793 C51.0454865,36.2391779 51.0059666,36.6676656 50.9274193,37.0898189 C53.1982252,38.0495563 54.7956889,40.3009054 54.7956889,42.9163569 C54.7956889,46.4023864 51.9594076,49.238248 48.4733781,49.238248 L48.4733781,49.238248 L32.2523384,49.238248 C28.3658712,49.238248 25.2043111,46.0762681 25.2043111,42.1906703 C25.2043111,39.3457249 26.9330855,36.8099592 29.4700803,35.7156134 C30.0620278,32.8384399 32.6139225,30.6680058 35.6636287,30.6680058 C36.6762202,30.6680058 37.6582324,30.9094915 38.5374745,31.3594256 C39.8501319,29.7487409 41.8398189,28.761752 43.9979014,28.761752 Z M43.9979314,30.6093656 C41.7217892,30.6093656 39.7920014,32.0739597 39.0873606,34.1114942 C38.2667286,33.1369169 37.0378642,32.5156494 35.6636587,32.5156494 C33.1922892,32.5156494 31.188182,34.5197866 31.188182,36.9903166 C31.1881821,37.0274613 31.1931287,37.0625675 31.1939381,37.0992925 C28.829446,37.5880801 27.0511452,39.680897 27.0511452,42.1906703 C27.0511452,45.0624775 29.3796918,47.3914738 32.2523384,47.3914738 L32.2523384,47.3914738 L48.4733781,47.3914738 C50.9447776,47.3914738 52.948495,45.3873366 52.948495,42.9163569 C52.948495,40.4457969 50.9476856,38.4433685 48.4783847,38.4408802 C48.932426,37.6685454 49.1982852,36.7715254 49.1982852,35.8097494 C49.1982851,32.9375225 46.8701283,30.6093656 43.9979314,30.6093656 Z M31.4213635,38.1998141 C31.7553064,38.1321202 32.0805852,38.345515 32.1495383,38.6782588 C32.2184614,39.0113623 32.0038374,39.3374505 31.6710936,39.4059839 C30.3592757,39.6771795 29.4082024,40.8483031 29.4082024,42.1906703 C29.4082024,43.7597134 30.6837151,45.0348063 32.2523384,45.0348063 L32.2523384,45.0348063 L48.4733481,45.0348063 C49.6415637,45.0348063 50.5922173,44.0849622 50.5922173,42.9163569 C50.5922173,41.7489807 49.6432126,40.7982971 48.4754167,40.7974877 C48.1357177,40.797098 47.8599353,40.5213455 47.860355,40.1807771 C47.8603549,39.8410781 48.1365271,39.5657153 48.4762561,39.5657153 L48.4762561,39.5657153 C50.3222808,39.5678139 51.8239897,41.0707819 51.8239897,42.9163569 C51.8239897,44.7636407 50.3210217,46.2669984 48.4733481,46.2669984 L48.4733481,46.2669984 L32.2523084,46.2669984 C30.0050666,46.2669984 28.1767898,44.4383619 28.1767898,42.1906703 C28.1767898,40.2670584 29.5411021,38.5890694 31.4213635,38.1998141 Z M20.4525,35.7075 C21.06,35.7075 21.6675,36.1125 22.0725,36.6525 C22.41,37.1925 22.41,37.935 22.0725,38.475 C21.735,39.0825 21.1275,39.42 20.4525,39.42 L20.4525,39.42 L14.985,39.42 C14.31,39.42 13.7025,39.015 13.365,38.475 C13.0275,37.935 13.0275,37.1925 13.365,36.6525 C13.7025,36.045 14.31,35.7075 14.985,35.7075 L14.985,35.7075 Z M43.9978715,31.733841 C46.2459228,31.733841 48.0737798,33.5625075 48.0737798,35.8097494 C48.0737798,36.5296498 47.8785226,37.2429848 47.5090538,37.8708178 C47.3943219,38.0660751 47.1887516,38.1742115 46.9773954,38.1742115 C46.8717172,38.1742115 46.7643902,38.1465403 46.6657273,38.0883499 C46.3726466,37.9166567 46.2748231,37.5393632 46.4473858,37.2454431 C46.7057801,36.8070512 46.8420074,36.3104389 46.8420074,35.8097494 C46.8420075,34.2415458 45.5664648,32.9656134 43.9978715,32.9656134 C42.7887936,32.9656134 41.7097674,33.7346504 41.3139165,34.8809809 C41.2024523,35.202932 40.8515709,35.3717772 40.530819,35.2615421 C40.2093176,35.1505276 40.0392133,34.800066 40.1498381,34.4780849 C40.7173822,32.8372407 42.2641504,31.733841 43.9978715,31.733841 Z M35.6635988,33.6401247 C36.6530759,33.6401247 37.5872107,34.076448 38.2270356,34.8355618 C38.4458269,35.0960247 38.4119799,35.4848603 38.1523264,35.7036515 C37.8918336,35.922023 37.5038374,35.8890155 37.2850462,35.6289423 C36.8792721,35.1476196 36.2889735,34.8718671 35.6635988,34.8718671 C34.5106727,34.8718671 33.5600192,35.8097494 33.5443398,36.9614462 C33.5398129,37.2991066 33.2653196,37.569073 32.9288883,37.569073 L32.9288883,37.569073 C32.5800755,37.5645161 32.3084602,37.2850762 32.3129021,36.9453472 C32.3377204,35.1228565 33.8407183,33.6401247 35.6635988,33.6401247 Z M27.8775,24.435 C28.89,24.435 29.7,25.245 29.6325,26.19 C29.6325,26.73 29.43,27.2025 29.0925,27.54 C28.755,27.8775 28.2825,28.08 27.81,28.08 L27.81,28.08 L14.9175,28.08 C13.905,28.08 13.095,27.27 13.095,26.2575 C13.095,25.245 13.905,24.435 14.9175,24.435 L14.9175,24.435 Z M35.775,13.1625 C36.855,13.1625 37.665,13.9725 37.5975,14.985 C37.5975,15.9975 36.7875,16.8075 35.775,16.8075 L35.775,16.8075 L14.9175,16.8075 C13.905,16.8075 13.095,15.9975 13.095,14.985 C13.095,13.9725 13.905,13.1625 14.9175,13.1625 L14.9175,13.1625 Z" id="形状结合" fill="url(#radialGradient-1)"></path>
                    </g>
                </g>
            </g>
        </g>
    </g>
</svg>