<?xml version="1.0" encoding="UTF-8"?>
<svg width="300px" height="300px" viewBox="0 0 300 300" version="1.1" xmlns="http://www.w3.org/2000/svg" xmlns:xlink="http://www.w3.org/1999/xlink">
    <title>javascript</title>
    <g id="官网页面" stroke="none" stroke-width="1" fill="none" fill-rule="evenodd">
        <g id="javascript">
            <circle id="椭圆形备份-5" fill="#FFFFFF" cx="150" cy="150" r="150"></circle>
            <g transform="translate(50.000000, 50.000000)" fill-rule="nonzero">
                <polygon id="路径" fill="#F0DB4F" points="0.647619048 0.647619048 199.352381 0.647619048 199.352381 199.353968 0.647619048 199.353968"></polygon>
                <path d="M183.090476,151.961905 C181.634921,142.896825 175.72381,135.28254 158.214286,128.18254 C152.131746,125.387302 145.350794,123.385714 143.330159,118.77619 C142.612698,116.093651 142.51746,114.58254 142.971429,112.95873 C144.274603,107.688889 150.565079,106.046032 155.550794,107.557143 C158.761905,108.633333 161.801587,111.107937 163.634921,115.055556 C172.209524,109.503175 172.192063,109.539683 178.179365,105.72381 C175.987302,102.325397 174.81746,100.757143 173.38254,99.3031746 C168.225397,93.5428571 161.198413,90.5761905 149.960317,90.8031746 L144.106349,91.5603175 C138.496825,92.9777778 133.150794,95.9222222 130.015873,99.8698413 C120.609524,110.542857 123.292063,129.222222 134.738095,136.909524 C146.014286,145.373016 162.579365,147.298413 164.695238,155.212698 C166.753968,164.901587 157.574603,168.038095 148.450794,166.92381 C141.726984,165.525397 137.987302,162.107937 133.944444,155.893651 C126.503175,160.2 126.503175,160.2 118.852381,164.6 C120.666667,168.566667 122.573016,170.361905 125.614286,173.798413 C140.007937,188.398413 176.026984,187.680952 182.487302,165.58254 C182.749206,164.82381 184.488889,159.763492 183.090476,151.961905 L183.090476,151.961905 Z M108.669841,91.9730159 L90.084127,91.9730159 L90.0079365,140.02381 C90.0079365,150.242857 90.5365079,159.611111 88.8746032,162.48254 C86.1555556,168.130159 79.1095238,167.430159 75.8984127,166.334921 C72.6301587,164.728571 70.968254,162.444444 69.0428571,159.215873 C68.5142857,158.288889 68.1174603,157.571429 67.984127,157.515873 L52.8730159,166.769841 C55.3857143,171.926984 59.0873016,176.403175 63.8285714,179.311111 C70.9111111,183.561905 80.4301587,184.865079 90.3857143,182.579365 C96.8650794,180.692063 102.455556,176.78254 105.38254,170.831746 C109.614286,163.030159 108.706349,153.587302 108.668254,143.142857 C108.763492,126.103175 108.669841,109.066667 108.669841,91.9730159 Z" id="形状" fill="#323330"></path>
            </g>
        </g>
    </g>
</svg>