<?xml version="1.0" encoding="UTF-8"?>
<svg width="300px" height="300px" viewBox="0 0 300 300" version="1.1" xmlns="http://www.w3.org/2000/svg" xmlns:xlink="http://www.w3.org/1999/xlink">
    <title>java</title>
    <g id="官网页面" stroke="none" stroke-width="1" fill="none" fill-rule="evenodd">
        <g id="java">
            <circle id="椭圆形备份-8" fill="#FFFFFF" cx="150" cy="150" r="150"></circle>
            <g transform="translate(61.000000, 30.000000)" fill-rule="nonzero" id="Path">
                <path d="M57.1387807,185.530074 C57.1387807,185.530074 48.0036375,190.854013 63.6399511,192.655564 C82.5829057,194.8213 92.2644307,194.51071 113.139696,190.551172 C113.139696,190.551172 118.627998,193.999948 126.292807,196.987036 C79.4959776,217.086924 20.3823614,195.822808 57.1387807,185.530074" fill="#5382A1"></path>
                <path d="M51.4204568,159.301038 C51.4204568,159.301038 41.174509,166.901776 56.8224204,168.523818 C77.0578776,170.615942 93.0382568,170.787057 120.69046,165.450849 C120.69046,165.450849 124.515133,169.336776 130.529198,171.461831 C73.9490419,188.04256 10.928925,172.769409 51.4204568,159.301038" fill="#5382A1"></path>
                <path d="M99.6276984,114.807888 C111.158417,128.112247 96.5981147,140.084492 96.5981147,140.084492 C96.5981147,140.084492 125.876577,124.937255 112.430302,105.96931 C99.8718956,88.2805304 90.2412719,79.4916728 142.377565,49.1888059 C142.377565,49.1888059 60.5407807,69.6722497 99.6276984,114.807888" fill="#E76F00"></path>
                <path d="M161.52026,204.93065 C161.52026,204.93065 168.280446,210.512876 154.075162,214.831433 C127.063411,223.032043 41.6493715,225.508369 17.9217102,215.158166 C9.39222609,211.439481 25.387425,206.278908 30.4189057,205.19604 C35.6662329,204.055703 38.6648898,204.268145 38.6648898,204.268145 C29.1792375,197.57141 -22.6464954,217.417531 12.3399818,223.101135 C107.753196,238.608036 186.269165,216.118348 161.52026,204.93065" fill="#5382A1"></path>
                <path d="M61.5317421,132.124734 C61.5317421,132.124734 18.0847227,142.466543 46.1460682,146.222034 C57.9944352,147.811791 81.6138513,147.452126 103.61474,145.604729 C121.595083,144.084711 139.649523,140.852895 139.649523,140.852895 C139.649523,140.852895 133.309432,143.573948 128.722531,146.71278 C84.6028432,158.341502 -0.628210227,152.931683 23.9087148,141.036924 C44.6596261,130.984398 61.5317421,132.124734 61.5317421,132.124734" fill="#5382A1"></path>
                <path d="M139.470402,175.784263 C184.320102,152.428023 163.583365,129.98289 149.109402,133.006784 C145.561786,133.746776 143.979985,134.387974 143.979985,134.387974 C143.979985,134.387974 145.296972,132.320387 147.81239,131.425423 C176.446535,121.336735 198.46804,161.180722 138.569002,176.961406 C138.569002,176.962052 139.262932,176.340225 139.470402,175.784263" fill="#5382A1"></path>
                <path d="M112.430302,0.257641198 C112.430302,0.257641198 137.268767,25.158437 88.8720956,63.4488265 C50.0628785,94.1643066 80.0223849,111.677451 88.8559875,131.686938 C66.2024046,111.203495 49.5777068,93.1718393 60.7308546,76.3896465 C77.1010469,51.7548863 122.452027,39.8110538 112.430302,0.257641198" fill="#E76F00"></path>
                <path d="M65.9388785,239.074243 C108.988998,241.835976 175.097332,237.541956 176.663025,217.127604 C176.663025,217.127604 173.653415,224.866526 141.084419,231.012463 C104.340242,237.942301 59.0214785,237.133217 32.1424568,232.691974 C32.1424568,232.691328 37.644934,237.255903 65.9388785,239.074243" fill="#5382A1"></path>
            </g>
        </g>
    </g>
</svg>