<?xml version="1.0" encoding="UTF-8"?>
<svg width="21px" height="20px" viewBox="0 0 21 20" version="1.1" xmlns="http://www.w3.org/2000/svg" xmlns:xlink="http://www.w3.org/1999/xlink">
    <title>nextjs</title>
    <g id="官网" stroke="none" stroke-width="1" fill="none" fill-rule="evenodd">
        <g id="官网改版-文档-应用介绍页" transform="translate(-897.000000, -624.000000)" fill="#000000" fill-rule="nonzero">
            <g id="编组-6" transform="translate(440.000000, 594.000000)">
                <g id="nextjs" transform="translate(457.837838, 30.000000)">
                    <path d="M9.345,0.0054 C9.302,0.0092 9.165,0.023 9.042,0.0328 C6.2014,0.2888 3.54,1.8214 1.8554,4.1768 C0.917,5.4864 0.3168,6.972 0.09,8.5456 C0.0098,9.095 0,9.2572 0,10.002 C0,10.7468 0.0098,10.909 0.09,11.4582 C0.6334,15.2134 3.306,18.3682 6.93,19.5382 C7.58,19.7464 8.264,19.889 9.042,19.975 C9.345,20.0084 10.655,20.0084 10.958,19.975 C12.301,19.8266 13.439,19.495 14.561,18.9214 C14.7332,18.8334 14.7664,18.81 14.743,18.7904 C14.7272,18.7788 13.9942,17.7956 13.1144,16.607 L11.5144,14.447 L9.5112,11.4816 C8.4086,9.8514 7.5014,8.5182 7.4936,8.5182 C7.4858,8.5182 7.478,9.8338 7.4736,11.4426 C7.4678,14.2594 7.4658,14.3728 7.4306,14.4392 C7.3798,14.535 7.3408,14.5742 7.2586,14.6172 C7.196,14.6484 7.1414,14.6542 6.8462,14.6542 L6.5084,14.6542 L6.4184,14.5976 C6.36270896,14.5626193 6.31745962,14.5132941 6.2874,14.4548 L6.2464,14.3668 L6.2502,10.4468 L6.256,6.5256 L6.316,6.4494 C6.35672804,6.40116732 6.40568586,6.36053843 6.4606,6.3294 C6.5406,6.2894 6.572,6.2864 6.9102,6.2864 C7.309,6.2864 7.3756,6.302 7.4792,6.4154 C7.5084,6.4466 8.5936,8.0808 9.8916,10.0492 C11.1896,12.0176 12.9658,14.707 13.8378,16.0264 L15.4214,18.425 L15.5014,18.3722 C16.2112,17.9108 16.9614,17.254 17.5562,16.5698 C18.8162985,15.1279124 19.6335874,13.3530573 19.91,11.4582 C19.99,10.909 20,10.7468 20,10.002 C20,9.2572 19.9902,9.095 19.91,8.5456 C19.3666,4.7906 16.694,1.6356 13.07,0.4668 C12.43,0.2594 11.75,0.1168 10.9878,0.0308 C10.8,0.0112 9.5074,-0.0102 9.345,0.0054 Z M13.44,6.0534 C13.5339438,6.10083486 13.6050199,6.18386493 13.6374,6.284 C13.653,6.3348 13.6574,7.4216 13.653,9.871 L13.6472,13.3856 L13.0272,12.4356 L12.4054,11.4856 L12.4054,8.9308 C12.4054,7.279 12.4134,6.3508 12.4254,6.3056 C12.4536467,6.20106589 12.5230674,6.11244988 12.6178,6.06 C12.6978,6.02 12.7272,6.015 13.0342,6.015 C13.3236,6.0142 13.3744,6.0182 13.44,6.0534 Z" id="形状"></path>
                </g>
            </g>
        </g>
    </g>
</svg>