<?xml version="1.0" encoding="UTF-8"?>
<svg width="30px" height="30px" viewBox="0 0 30 30" version="1.1" xmlns="http://www.w3.org/2000/svg" xmlns:xlink="http://www.w3.org/1999/xlink">
    <title>Nodejs</title>
    <g id="页面-1" stroke="none" stroke-width="1" fill="none" fill-rule="evenodd">
        <g id="Nodejs" fill-rule="nonzero">
            <rect id="矩形" fill="#000000" opacity="0" x="0" y="0" width="30" height="30"></rect>
            <path d="M14.8505859,23.0390625 C14.7626953,23.0390625 14.6777344,23.015625 14.6015625,22.9716797 L13.8105469,22.5029297 C13.6933594,22.4355469 13.7490234,22.4121094 13.7900391,22.4003906 C13.9482422,22.3447266 13.9804688,22.3330078 14.1474609,22.2363281 C14.1650391,22.2275391 14.1884766,22.2304688 14.2060547,22.2392578 L14.8154297,22.5996094 C14.8359375,22.6113281 14.8681641,22.6113281 14.8886719,22.5996094 L17.2587891,21.2314453 C17.2792969,21.2197266 17.2939453,21.1933594 17.2939453,21.1669922 L17.2939453,18.4306641 C17.2939453,18.4042969 17.2792969,18.3779297 17.2558594,18.3662109 L14.8857422,16.9980469 C14.8652344,16.9863281 14.8359375,16.9863281 14.8125,16.9980469 L12.4453125,18.3691406 C12.421875,18.3808594 12.4072266,18.4072266 12.4072266,18.4335938 L12.4072266,21.1699219 C12.4072266,21.1962891 12.421875,21.2197266 12.4453125,21.234375 L13.0957031,21.609375 C13.4472656,21.7851562 13.6640625,21.5771484 13.6640625,21.3691406 L13.6640625,18.6679688 C13.6640625,18.6298828 13.6933594,18.6005859 13.7314453,18.6005859 L14.0302734,18.6005859 C14.0683594,18.6005859 14.0976563,18.6298828 14.0976563,18.6679688 L14.0976563,21.3691406 C14.0976563,21.8378906 13.8427734,22.1103516 13.3945313,22.1103516 C13.2568359,22.1103516 13.1484375,22.1103516 12.8466797,21.9609375 L12.2255859,21.6035156 C12.0732422,21.515625 11.9765625,21.3486328 11.9765625,21.1699219 L11.9765625,18.4335937 C11.9765625,18.2548828 12.0703125,18.0908203 12.2255859,18.0029297 L14.5986328,16.6347656 C14.7480469,16.5498047 14.9472656,16.5498047 15.0966797,16.6347656 L17.4667969,18.0029297 C17.6191406,18.0908203 17.7158203,18.2578125 17.7158203,18.4335937 L17.7158203,21.1699219 C17.7158203,21.3486328 17.6191406,21.5126953 17.4667969,21.6005859 L15.0966797,22.96875 C15.0234375,23.015625 14.9355469,23.0361328 14.8505859,23.0390625" id="路径" fill="#689F63"></path>
            <path d="M15.5830078,21.1523438 C14.5458984,21.1523438 14.3291016,20.6748047 14.3291016,20.2763672 C14.3291016,20.2382812 14.3583984,20.2089844 14.3964844,20.2089844 L14.7041016,20.2089844 C14.7392578,20.2089844 14.765625,20.2324219 14.7714844,20.2675781 C14.8183594,20.578125 14.9560547,20.7363281 15.5830078,20.7363281 C16.0839844,20.7363281 16.2949219,20.6220703 16.2949219,20.3583984 C16.2949219,20.2060547 16.2333984,20.0917969 15.4570312,20.015625 C14.8066406,19.9511719 14.4052734,19.8076172 14.4052734,19.2890625 C14.4052734,18.8115234 14.8095703,18.5273438 15.4833984,18.5273438 C16.2421875,18.5273438 16.6171875,18.7910156 16.6669922,19.3564453 C16.6699219,19.3769531 16.6611328,19.3945312 16.6494141,19.4091797 C16.6376953,19.4238281 16.6171875,19.4296875 16.5996094,19.4296875 L16.2919922,19.4296875 C16.2597656,19.4296875 16.2333984,19.40625 16.2246094,19.3769531 C16.1513672,19.0488281 15.9726562,18.9433594 15.4833984,18.9433594 C14.9384766,18.9433594 14.8740234,19.1337891 14.8740234,19.2744141 C14.8740234,19.4472656 14.9501953,19.4970703 15.6855469,19.59375 C16.4150391,19.6904297 16.7607422,19.828125 16.7607422,20.3378906 C16.7607422,20.8535156 16.3300781,21.1494141 15.5800781,21.1494141 M18.4658203,18.2988281 L18.5595703,18.2988281 C18.6359592,18.2988281 18.6533203,18.2376036 18.6533203,18.2031649 C18.6533203,18.1113281 18.5977648,18.1113281 18.5630425,18.1113281 L18.4658203,18.1113281 L18.4658203,18.2988281 L18.4658203,18.2988281 Z M18.3691406,18.0322266 L18.5449219,18.0322266 C18.6064453,18.0322266 18.7236328,18.0322266 18.7236328,18.1669922 C18.7236328,18.2607422 18.6621094,18.28125 18.6269531,18.2929688 C18.6972656,18.2988281 18.703125,18.3427734 18.7119141,18.4101563 C18.7177734,18.4511719 18.7236328,18.5214844 18.7382813,18.5449219 L18.6298828,18.5449219 C18.6269531,18.5214844 18.609375,18.3896484 18.609375,18.3837891 C18.6035156,18.3544922 18.5917969,18.3398438 18.5566406,18.3398438 L18.4658203,18.3398438 L18.4658203,18.5449219 L18.3691406,18.5449219 L18.3691406,18.0322266 Z M18.1582031,18.2871094 C18.1582031,18.5009766 18.3310547,18.6708984 18.5390625,18.6708984 C18.7529297,18.6708984 18.9228516,18.4951172 18.9228516,18.2871094 C18.9228516,18.0732422 18.75,17.90625 18.5390625,17.90625 C18.3310547,17.9033203 18.1552734,18.0703125 18.1582031,18.2871094 M18.9960938,18.2871094 C18.9960938,18.5390625 18.7910156,18.7441406 18.5390625,18.7441406 C18.2900391,18.7441406 18.0820312,18.5419922 18.0820312,18.2871094 C18.0820312,18.0292969 18.2958984,17.8300781 18.5390625,17.8300781 C18.7851563,17.8300781 18.9960938,18.0292969 18.9960938,18.2871094" id="形状" fill="#689F63"></path>
            <path d="M7.50878906,12.3339844 C7.50878906,12.2255859 7.45019531,12.1259766 7.35644531,12.0703125 L4.84277344,10.6230469 C4.80175781,10.5966797 4.75195313,10.5849609 4.70507813,10.5820313 L4.67871094,10.5820313 C4.63183594,10.5849609 4.58203125,10.5966797 4.54101563,10.6230469 L2.02734375,12.0703125 C1.93359375,12.1259766 1.875,12.2255859 1.875,12.3339844 L1.88085938,16.2304688 C1.88085938,16.2832031 1.91015625,16.3359375 1.95703125,16.3623047 C2.00390625,16.3916016 2.0625,16.3916016 2.10644531,16.3623047 L3.60058594,15.5068359 C3.69433594,15.4511719 3.75292969,15.3515625 3.75292969,15.2431641 L3.75292969,13.4238281 C3.75292969,13.3154297 3.81152344,13.2158203 3.90527344,13.1601562 L4.54101562,12.7939453 C4.58789062,12.7675781 4.640625,12.7529297 4.69335937,12.7529297 C4.74609375,12.7529297 4.79882812,12.7675781 4.84570312,12.7939453 L5.48144531,13.1601562 C5.57519531,13.2128906 5.63378906,13.3154297 5.63378906,13.4238281 L5.63378906,15.2431641 C5.63378906,15.3515625 5.69238281,15.4511719 5.78613281,15.5068359 L7.28027344,16.3623047 C7.32714844,16.3916016 7.38574219,16.3916016 7.43261719,16.3623047 C7.47949219,16.3359375 7.50878906,16.2861328 7.50878906,16.2304688 L7.50878906,12.3339844 L7.50878906,12.3339844 Z M19.3681641,14.3613281 C19.3681641,14.3876953 19.3535156,14.4140625 19.3300781,14.4257812 L18.4658203,14.9238281 C18.4423828,14.9384766 18.4130859,14.9384766 18.3896484,14.9238281 L17.5253906,14.4257812 C17.5019531,14.4111328 17.4873047,14.3876953 17.4873047,14.3613281 L17.4873047,13.3652344 C17.4873047,13.3388672 17.5019531,13.3125 17.5253906,13.3007812 L18.3896484,12.8027344 C18.4130859,12.7880859 18.4423828,12.7880859 18.4658203,12.8027344 L19.3300781,13.3007812 C19.3535156,13.3154297 19.3681641,13.3388672 19.3681641,13.3652344 L19.3681641,14.3613281 Z M19.6025391,6.98144531 C19.5556641,6.95507812 19.4970703,6.95507812 19.4501953,6.984375 C19.4033203,7.01074219 19.3740234,7.06054687 19.3740234,7.11621094 L19.3740234,10.9746094 C19.3740234,11.0126953 19.3535156,11.0478516 19.3212891,11.0654297 C19.2890625,11.0830078 19.2480469,11.0830078 19.2158203,11.0654297 L18.5859375,10.7021484 C18.4921875,10.6464844 18.3779297,10.6464844 18.28125,10.7021484 L15.7675781,12.1523437 C15.6738281,12.2050781 15.6152344,12.3076172 15.6152344,12.4160156 L15.6152344,15.3193359 C15.6152344,15.4277344 15.6738281,15.5273437 15.7675781,15.5830078 L18.28125,17.0361328 C18.375,17.0888672 18.4892578,17.0888672 18.5859375,17.0361328 L21.0996094,15.5830078 C21.1933594,15.5273437 21.2519531,15.4277344 21.2519531,15.3193359 L21.2519531,8.08007812 C21.2519531,7.96875 21.1933594,7.86914062 21.0966797,7.81347656 L19.6025391,6.98144531 Z M27.9726562,13.3388672 C28.0664062,13.2832031 28.125,13.1835937 28.125,13.0751953 L28.125,12.3720703 C28.125,12.2636719 28.0664062,12.1640625 27.9726562,12.1083984 L25.4736328,10.6582031 C25.3796977,10.6025377 25.2628804,10.6025377 25.1689453,10.6582031 L22.6552734,12.1083984 C22.5615234,12.1640625 22.5029297,12.2636719 22.5029297,12.3720703 L22.5029297,15.2724609 C22.5029297,15.3808594 22.5615234,15.4833984 22.6552734,15.5361328 L25.1542969,16.9599609 C25.2451172,17.0126953 25.359375,17.0126953 25.453125,16.9628906 L26.9648438,16.1220703 C27.0117188,16.0957031 27.0439453,16.0458984 27.0439453,15.9902344 C27.0439453,15.9345703 27.0146484,15.8847656 26.9677734,15.8583984 L24.4394531,14.4082031 C24.3925781,14.3818359 24.3632813,14.3320312 24.3632813,14.2763672 L24.3632813,13.3652344 C24.3632813,13.3095703 24.3925781,13.2597656 24.4394531,13.2333984 L25.2275391,12.7792969 C25.2744141,12.7529297 25.3330078,12.7529297 25.3798828,12.7792969 L26.1679688,13.2333984 C26.2148438,13.2597656 26.2441406,13.3095703 26.2441406,13.3652344 L26.2441406,14.0800781 C26.2441406,14.1328125 26.2734375,14.1855469 26.3203125,14.2119141 C26.3671875,14.2382812 26.4257813,14.2382812 26.4726563,14.2119141 L27.9726563,13.3388672 L27.9726562,13.3388672 Z" id="形状" fill="#231815"></path>
            <path d="M25.2861328,13.2041016 C25.3037109,13.1923828 25.3271484,13.1923828 25.3447266,13.2041016 L25.828125,13.4824219 C25.8457031,13.4941406 25.8574219,13.5117188 25.8574219,13.5322266 L25.8574219,14.0888672 C25.8574219,14.109375 25.8457031,14.1298828 25.828125,14.1386719 L25.3447266,14.4169922 C25.3271484,14.4287109 25.3037109,14.4287109 25.2861328,14.4169922 L24.8027344,14.1386719 C24.7851562,14.1269531 24.7734375,14.109375 24.7734375,14.0888672 L24.7734375,13.5322266 C24.7734375,13.5117188 24.7851562,13.4912109 24.8027344,13.4824219 L25.2861328,13.2041016 Z M14.2822266,12.1757812 L14.2763672,12.1699219 C14.2734375,12.1669922 14.2705078,12.1640625 14.2646484,12.1611328 C14.2587891,12.1552734 14.25,12.1494141 14.2441406,12.1435547 C14.2412109,12.140625 14.2412109,12.140625 14.2382812,12.140625 L14.2119141,12.1230469 L12.5742188,11.1767578 L12.3134766,11.0273437 L11.7099609,10.6787109 C11.6835938,10.6640625 11.6572266,10.6552734 11.6308594,10.6464844 C11.6074219,10.640625 11.5839844,10.6376953 11.5605469,10.6376953 L11.53125,10.6376953 L11.5283203,10.6376953 C11.5224609,10.6376953 11.5166016,10.640625 11.5107422,10.640625 C11.5048828,10.640625 11.4990234,10.6435547 11.4960937,10.6435547 C11.4902344,10.6464844 11.4814453,10.6464844 11.4755859,10.6494141 C11.4726562,10.6494141 11.4667969,10.6523437 11.4638672,10.6523437 C11.4550781,10.6552734 11.4492188,10.6582031 11.4433594,10.6611328 L11.4404297,10.6611328 C11.4316406,10.6640625 11.4228516,10.6699219 11.4140625,10.6757812 L9.48632812,11.7890625 L8.92089844,12.1142578 L8.91503906,12.1171875 C8.82128906,12.1699219 8.76269531,12.2695312 8.76269531,12.3779297 L8.76269531,15.2666016 C8.76269531,15.3339844 8.78613281,15.3984375 8.82421875,15.4511719 C8.83007812,15.4599609 8.83886719,15.46875 8.84765625,15.4775391 L8.85351562,15.4833984 C8.859375,15.4892578 8.86816406,15.4951172 8.87402344,15.5039063 L8.87988281,15.5097656 C8.88867188,15.5185547 8.90039062,15.5244141 8.91210938,15.5302734 L11.0917969,16.7900391 L11.4140625,16.9746094 C11.4404297,16.9892578 11.4667969,17.0009766 11.4960938,17.0068359 C11.5019531,17.0068359 11.5078125,17.0097656 11.5107422,17.0097656 C11.5195312,17.0097656 11.5253906,17.0126953 11.5341797,17.0126953 C11.5429688,17.0126953 11.5488281,17.0126953 11.5576172,17.015625 L11.5664063,17.015625 C11.578125,17.015625 11.5869141,17.015625 11.5986328,17.0126953 L11.6103516,17.0126953 C11.6191406,17.0126953 11.6279297,17.0097656 11.6367188,17.0068359 C11.6396484,17.0068359 11.6425781,17.0068359 11.6455078,17.0039063 L11.6513672,17.0039063 L11.6777344,16.9951172 C11.6806641,16.9951172 11.6806641,16.9951172 11.6835938,16.9921875 L11.71875,16.9746094 L14.2177734,15.5302734 C14.2939453,15.4863281 14.3466797,15.4072266 14.3642578,15.3222656 C14.3671875,15.3046875 14.3701172,15.2871094 14.3701172,15.2695313 L14.3701172,12.3808594 C14.3642578,12.3017578 14.3349609,12.2285156 14.2822266,12.1757813 L14.2822266,12.1757812 Z" id="形状" fill="#689F63"></path>
        </g>
    </g>
</svg>